<svg width="581" height="318" viewBox="0 0 581 318" fill="none" xmlns="http://www.w3.org/2000/svg">
<path opacity="0.45" d="M492.131 214.379C481.632 197.688 467.25 184.389 452.318 172.42C439.807 162.382 426.004 152.046 420.844 136.03C418.022 127.299 418.104 117.646 414.934 109.063C410.706 97.62 397.615 83.7568 386.47 78.7597C369.409 71.1112 348.79 82.7091 331.069 76.7483C323.751 74.2862 321.816 69.5824 316.774 64.6425C311.375 59.3537 304.885 54.7546 298.65 50.5157C286.418 42.1989 272.88 35.5202 258.295 32.6147C232.612 27.4989 205.214 34.8051 184.016 50.7615C171.275 60.3546 160.739 72.94 152.861 87.0846C145.332 100.613 142.006 115.612 135.033 129.274C121.965 154.875 94.8418 169.064 82.0114 194.814C72.5742 213.77 72.1881 236.936 77.1555 257.838C82.1228 278.732 92.0055 297.792 102.386 316.154C102.434 316.238 102.481 316.312 102.526 316.382H119.664C185.062 316.16 466.839 315.281 473.532 316.607H486.555C496.052 308.335 504.717 285.488 506.447 271.693C508.971 251.616 502.623 231.071 492.131 214.379Z" fill="#F7EEEB"/>
<path d="M355.413 193.472C353.035 197.199 346.83 201.544 342.425 201.481C327.426 201.204 322.492 190.988 320.872 187.266C321.177 187.191 321.689 187.13 322.052 187.086C324.818 186.688 327.637 183.955 328.464 180.87C329.528 176.862 330.832 169.023 330.678 164.038L349.647 174.537C349.618 175.976 349.523 177.551 349.385 179.139C349.286 180.106 349.191 181.053 349.08 181.976C348.975 182.858 348.857 183.696 348.748 184.474C348.399 187.073 349.561 189.652 351.75 191.083L355.413 193.472Z" fill="#FE8E68"/>
<path d="M357.047 152.634C356.023 155.321 356.456 158.371 357.496 161.051C358.231 162.947 359.864 161.274 361.897 161.308C365.041 161.361 367.5 158.087 369.406 149.404C370.614 143.034 370.92 139.802 370.679 139.19C369.811 136.988 366.947 135.805 364.585 135.597" fill="#3D302A"/>
<path d="M361.837 133.545C366.795 139.521 368.601 156.341 364.411 168.054C361.432 176.381 357.976 181.759 353.931 181.586C347.8 181.325 335.913 176.289 332.039 172.073C325.069 164.49 327.097 149.631 328.537 140.269C329.845 131.764 333.822 120.729 344.508 122.829C351.535 124.211 357.386 128.18 361.837 133.545Z" fill="#FE8E68"/>
<path d="M333.665 138.924C334.767 140.239 336.705 140.531 338.301 140.789C340.445 141.136 341.511 141.869 342.619 143.817C343.328 145.063 344.032 146.429 345.296 147.106C345.891 147.425 346.794 147.469 347.088 146.862C346.522 146.487 346.332 145.709 346.474 145.046C346.617 144.382 347.027 143.809 347.457 143.284C347.821 143.777 347.86 144.43 348.06 145.01C348.325 145.779 348.898 146.436 349.624 146.802C349.739 146.86 349.866 146.912 349.994 146.895C350.168 146.871 350.297 146.727 350.409 146.592C351.191 145.658 351.955 143.873 353.04 143.305C353.255 144.325 353.645 145.128 354.275 145.971C354.823 146.704 355.479 147.46 356.378 147.636C356.668 147.692 357.028 147.65 357.166 147.388C357.333 147.069 357.071 146.746 357.111 146.423C357.149 146.118 357.293 145.984 357.449 145.726C357.849 145.065 358.21 144.425 358.733 143.847C359.794 145.054 360.953 146.174 362.195 147.194C362.469 147.419 362.872 147.643 363.146 147.418C363.292 147.298 363.331 147.095 363.362 146.909C363.514 145.966 363.666 145.023 363.818 144.079C363.904 143.55 364.215 142.859 364.735 142.993C364.986 143.059 365.139 143.306 365.275 143.527C365.45 143.811 368.494 147.027 368.559 146.777C369.033 144.952 370.008 143.287 370.482 141.462C373.534 129.698 359.9 120.245 349.481 120.195C347.162 120.184 344.993 120.67 342.747 121.168C340.351 121.699 337.87 122.094 335.691 123.289C332.642 124.96 330.327 127.994 330.923 131.62" fill="#3D302A"/>
<path d="M338.689 135.81C340.2 137.524 340.605 139.935 340.745 142.216C340.954 145.651 340.672 149.224 339.081 152.275C338.629 153.143 338.297 157.443 337.597 157.206C337.376 157.131 337.412 153.799 336.828 152.001C335.923 149.216 331.747 148.159 329.871 149.914C326.873 152.716 328.632 156.116 329.623 158.231C330.22 159.507 331.162 160.942 331.321 162.295C331.525 164.027 331.581 170.326 330.452 171.802C329.509 173.036 328.505 167.078 327.656 165.905C321.336 157.166 315.275 134.91 326.069 130.089C327.709 129.357 332.778 128.975 334.311 129.91" fill="#3D302A"/>
<path d="M378.628 312.707C379.254 312.814 379.885 312.898 380.532 312.92C384.006 313.034 387.36 312.268 390.758 311.684C393.744 311.17 394.554 310.886 394.49 307.286C393.973 278.764 389.775 250.324 382.232 222.814C381.08 218.612 379.83 214.382 377.624 210.625C373.862 204.219 365.214 198.683 358.588 195.578C357.65 195.139 353.774 197.604 352.832 197.178C352.004 196.804 351.278 196.23 350.445 195.866C348.011 194.801 346.379 197.027 344.342 197.952C343.291 198.428 342.115 198.728 340.955 198.68C340.012 198.641 339.158 198.073 338.293 198.519C334.417 200.522 324.791 185.641 324.791 185.641L320.624 189.997L308.429 202.773L277.939 244.775C277.939 244.775 272.408 279.199 268.604 301.762C267.946 305.656 265.327 314.063 264.81 317.015C264.922 316.38 290.832 316.203 292.232 316.203C310.248 316.203 327.029 316.203 345.046 316.203C348.008 316.203 355.975 317.46 358.056 315.284C360.615 312.607 363.582 300.343 363.734 296.905C364.245 285.346 363.454 273.874 363.299 262.242C363.362 266.97 364.722 271.248 365.303 275.882C366.05 281.844 367.122 287.802 368.084 293.734C368.858 298.504 369.599 303.279 370.192 308.076C370.459 310.234 370.116 311.52 371.944 312.364C373.481 313.074 376.833 312.401 378.628 312.707Z" fill="#BC744A"/>
<path d="M368.844 302.83C367.431 302.248 358.723 300.088 354.796 299.276C352.736 298.849 343.415 296.432 341.254 296.432C339.094 296.432 336.154 299.519 336.154 299.519L336.933 310.143C339.011 309.935 341.794 311.015 343.29 311.223C344.786 311.431 349.856 311.457 352.971 309.894C353.149 309.804 353.31 309.705 353.478 309.61C354.733 310.721 356.309 311.807 358.048 311.894C358.048 311.894 359.411 311.756 359.282 311.205C359.219 310.937 358.319 309.555 357.411 308.207C358.745 309.567 360.929 311.769 363.447 311.894C363.447 311.894 364.81 311.756 364.68 311.205C364.604 310.879 363.302 308.925 362.244 307.371C362.258 307.383 362.277 307.396 362.29 307.407C363.394 308.381 366.022 311.739 369.138 311.894C369.138 311.894 370.501 311.756 370.371 311.205C370.324 311.004 369.809 310.183 369.176 309.22C369.971 309.825 370.945 310.475 372.125 311.058C375.49 312.719 377.402 311.458 377.402 311.058C377.403 310.657 370.257 303.411 368.844 302.83Z" fill="#FE8E68"/>
<path d="M338.558 290.492C338.558 290.492 343.981 293.567 343.499 300.1C343.017 306.633 341.054 314.21 332.87 313.416C324.687 312.622 338.558 290.492 338.558 290.492Z" fill="#874C2E"/>
<path d="M331.106 312.766C311.492 319.576 285.241 313.071 268.603 301.761C258.178 294.69 251.529 285.718 252.646 276.948C255.55 254.168 273.452 201.958 288.944 194.336C299.47 189.152 312.246 187.004 319.36 186.147C322.7 185.741 324.79 185.64 324.79 185.64L322.205 192.928L309.269 229.399C308.79 251.047 293.298 263.896 296.376 268.933C299.454 273.957 323.788 279.387 336.564 287.996C340.108 290.392 344.594 307.685 331.106 312.766Z" fill="#BC744A"/>
<path d="M252.649 277.509L252.608 279.028C252.61 279.28 252.575 279.533 252.607 279.784L252.694 280.536C252.767 281.034 252.765 281.543 252.894 282.03L253.254 283.495C253.851 285.411 254.675 287.261 255.798 288.926C257.954 292.313 260.806 295.221 263.95 297.717C270.254 302.72 277.513 306.46 285.086 309.182C292.643 311.964 300.57 313.799 308.605 314.465C312.621 314.81 316.667 314.851 320.688 314.506C324.712 314.197 328.708 313.457 332.582 312.253C328.788 313.697 324.78 314.554 320.743 315.05C316.697 315.508 312.609 315.564 308.542 315.32C304.472 315.089 300.428 314.477 296.447 313.608C292.466 312.737 288.54 311.61 284.704 310.227C280.881 308.81 277.142 307.156 273.562 305.196C269.99 303.23 266.534 301.016 263.41 298.375C260.28 295.757 257.441 292.728 255.336 289.209C254.261 287.466 253.495 285.54 252.97 283.571C252.451 281.587 252.41 279.519 252.649 277.509Z" fill="#874C2E"/>
<path d="M309.276 229.406C309.291 233.51 308.719 237.624 307.654 241.607C306.575 245.589 305.004 249.428 303.176 253.119C302.265 254.968 301.288 256.781 300.287 258.571C299.297 260.366 298.282 262.149 297.451 263.98C297.042 264.894 296.688 265.834 296.545 266.762C296.506 267.217 296.468 267.681 296.599 268.078C296.627 268.291 296.755 268.458 296.829 268.649C296.97 268.819 297.068 269.006 297.243 269.166C298.568 270.495 300.471 271.396 302.28 272.26C309.69 275.635 317.558 278.137 325.061 281.512C328.811 283.199 332.525 285.016 335.975 287.29L336.616 287.724C336.829 287.872 337.031 288.066 337.238 288.236C337.621 288.611 337.959 289.028 338.228 289.482C338.778 290.382 339.15 291.362 339.436 292.355C339.983 294.352 340.215 296.411 340.233 298.463C340.096 296.418 339.761 294.382 339.154 292.441C338.519 290.52 337.531 288.651 335.679 287.75C332.214 285.598 328.49 283.882 324.721 282.301C320.941 280.74 317.121 279.266 313.278 277.833C309.441 276.381 305.578 274.988 301.809 273.271C299.953 272.351 298.046 271.484 296.46 269.888C296.258 269.698 296.099 269.43 295.926 269.199C295.799 268.92 295.632 268.649 295.583 268.349C295.408 267.757 295.461 267.172 295.517 266.614C295.699 265.511 296.094 264.519 296.526 263.568C297.407 261.669 298.442 259.892 299.447 258.104C300.451 256.316 301.463 254.541 302.414 252.734C306.236 245.537 308.891 237.63 309.276 229.406Z" fill="#874C2E"/>
<path d="M360.111 196.289C358.238 198.147 349.909 204.079 341.966 204.079C340.645 204.079 339.251 203.963 337.771 203.687C331.107 202.467 325.487 198.025 322.206 192.928C321.597 191.97 321.059 190.983 320.624 189.995C320.028 188.717 319.607 187.411 319.361 186.148C322.701 185.741 325.894 184.899 326.417 184.304C326.983 188.195 331.789 195.222 339.062 196.543C339.977 196.718 340.833 196.79 341.661 196.805H341.676C345.088 196.863 347.716 195.774 349.502 194.671C349.517 194.671 352.987 191.936 353.001 191.921L360.111 196.289Z" fill="#BC744A"/>
<path d="M348.839 160.284C349.583 160.284 350.186 159.094 350.186 157.627C350.186 156.159 349.583 154.969 348.839 154.969C348.095 154.969 347.492 156.159 347.492 157.627C347.492 159.094 348.095 160.284 348.839 160.284Z" fill="#56211A"/>
<path d="M349.413 159.489C349.735 159.489 349.996 159.125 349.996 158.676C349.996 158.228 349.735 157.864 349.413 157.864C349.09 157.864 348.829 158.228 348.829 158.676C348.829 159.125 349.09 159.489 349.413 159.489Z" fill="white"/>
<path d="M363.329 161.502C364.073 161.502 364.676 160.313 364.676 158.845C364.676 157.377 364.073 156.188 363.329 156.188C362.585 156.188 361.982 157.377 361.982 158.845C361.982 160.313 362.585 161.502 363.329 161.502Z" fill="#56211A"/>
<path d="M358.714 170.264C358.698 170.825 356.352 174.238 354.071 173.967C352.159 173.74 350.482 170.154 351.489 168.519C352.028 167.949 358.731 169.704 358.714 170.264Z" fill="white"/>
<path d="M344.832 151.101C346.499 149.63 350.512 150.201 352.218 151.292C352.552 151.506 352.914 151.023 352.638 150.748C351.483 149.6 349.555 149.532 348.022 149.588C346.858 149.631 344.949 149.58 344.55 150.938C344.5 151.107 344.711 151.208 344.832 151.101Z" fill="#3D302A"/>
<path d="M361.129 152.095C362.148 152.018 363.095 151.83 364.112 152.084C365.132 152.338 365.882 152.96 366.787 153.436C366.983 153.54 367.159 153.337 367.074 153.15C366.184 151.184 362.727 150.464 361.006 151.646C360.827 151.77 360.87 152.115 361.129 152.095Z" fill="#3D302A"/>
<path d="M357.04 157.696C356.973 159.224 357.031 160.791 357.283 162.303C357.374 162.848 358.073 164.297 357.96 164.763C357.836 165.272 356.948 165.902 356.647 166.403C356.494 166.656 356.792 166.918 357.035 166.791C357.94 166.322 358.979 165.627 358.791 164.534C358.617 163.52 358.153 162.546 357.996 161.501C357.807 160.236 357.793 158.967 357.68 157.696C357.645 157.29 357.059 157.279 357.04 157.696Z" fill="#CC6144"/>
<path d="M363.735 160.758C364.057 160.758 364.318 160.372 364.318 159.895C364.318 159.418 364.057 159.031 363.735 159.031C363.412 159.031 363.151 159.418 363.151 159.895C363.151 160.372 363.412 160.758 363.735 160.758Z" fill="white"/>
<path d="M341.037 176.664C343.128 179.119 346.709 180.773 349.926 180.864C350.246 180.872 350.329 180.353 350.003 180.293C346.598 179.661 344.078 178.492 341.356 176.345C341.13 176.167 340.845 176.439 341.037 176.664Z" fill="#CC6144"/>
<path d="M324.782 184.429C319.955 182.141 317.371 189.395 316.884 192.951C315.946 199.786 318.98 206.155 321.737 212.204C324.633 218.556 327.945 224.697 330.905 231.016C332.438 234.288 333.79 237.639 334.812 241.107C335.881 244.732 336.002 248.773 337.314 252.267C337.493 252.743 338.108 252.638 338.169 252.151C338.808 247.087 336.566 240.859 334.82 236.121C333.147 231.585 330.987 227.25 328.832 222.93C326.019 217.293 323.166 211.602 320.854 205.736C319.695 202.794 318.738 199.718 318.534 196.543C318.369 194.007 319.301 183.678 324.238 185.718C324.972 186.021 325.503 184.77 324.782 184.429Z" fill="#874C2E"/>
<path d="M352.983 192.236C359.057 194.546 356.933 205.646 356.103 210.459C355.093 216.317 353.199 221.997 350.827 227.437C346.199 238.048 339.964 247.89 334.382 258.007C333.922 258.84 335.188 259.583 335.66 258.754C342.6 246.572 350.512 234.749 355.094 221.401C357.221 215.208 358.577 208.691 358.672 202.129C358.734 197.765 358.092 192.454 353.364 190.859C352.482 190.562 352.138 191.914 352.983 192.236Z" fill="#874C2E"/>
<path d="M344.884 252.843C340.192 252.705 335.501 252.565 330.809 252.426C330.052 252.404 329.608 253.039 329.523 253.712C328.639 260.758 328.332 267.941 327.273 274.956C327.149 275.782 327.601 276.564 328.513 276.583C333.141 276.68 337.769 276.818 342.397 276.869C342.64 276.871 342.843 276.814 343.014 276.721C343.022 276.717 343.029 276.712 343.037 276.708C343.082 276.682 343.128 276.658 343.168 276.626C343.381 276.478 343.553 276.251 343.637 275.925C345.423 268.996 345.426 261.239 346.17 254.129C346.243 253.423 345.52 252.862 344.884 252.843Z" fill="#874C2E"/>
<path d="M363.505 281.422C363.709 277.6 363.33 273.73 363.302 269.9C363.274 265.932 363.393 261.968 363.604 258.006C363.808 254.165 364.118 250.332 364.557 246.51C365.009 242.574 365.833 238.676 366.249 234.742C366.305 234.214 365.462 234.119 365.334 234.618C364.411 238.238 364.054 242.086 363.617 245.794C363.139 249.851 362.789 253.926 362.593 258.006C362.403 261.965 362.379 265.936 362.468 269.899C362.554 273.728 362.557 277.686 363.342 281.443C363.362 281.539 363.5 281.511 363.505 281.422Z" fill="#874C2E"/>
<path d="M324.478 191.562C325.732 196.707 331.492 201.071 336.559 201.83C336.987 201.894 337.174 201.305 336.741 201.167C334.127 200.339 331.66 199.258 329.551 197.471C327.512 195.743 326.265 193.614 324.828 191.415C324.71 191.234 324.425 191.346 324.478 191.562Z" fill="#874C2E"/>
<path d="M341.353 201.854C342.236 201.654 343.112 201.446 343.983 201.199C344.761 200.978 345.578 200.826 346.258 200.372C346.461 200.237 346.387 199.916 346.133 199.91C344.533 199.868 342.681 200.747 341.193 201.275C340.831 201.403 340.972 201.94 341.353 201.854Z" fill="#874C2E"/>
<path d="M332.75 153.642C333.239 152.89 333.994 155.222 334.025 155.418C334.167 156.324 333.981 157.133 333.749 158C333.662 158.326 334.668 158.069 334.788 157.838C335.442 156.573 335.491 154.375 334.354 153.338C333.643 152.689 332.264 152.868 331.744 153.68C331.513 154.041 332.587 153.892 332.75 153.642Z" fill="#CC6144"/>
<path d="M334.346 155.428C334.34 155.33 334.35 155.234 334.375 155.139C334.385 155.11 334.379 155.086 334.356 155.066C333.952 154.574 333.326 154.345 332.718 154.577C332.68 154.591 332.552 154.65 332.606 154.708C332.751 154.862 333.036 154.856 333.222 154.949C333.376 155.025 333.493 155.13 333.619 155.242C333.753 155.361 333.912 155.41 334.053 155.524C334.114 155.573 334.346 155.521 334.346 155.428Z" fill="#CC6144"/>
<path d="M351.329 174.492C351.892 175.275 353.108 175.682 353.979 175.157C354.045 175.117 354.04 175.067 353.956 175.072C353.178 175.109 352.468 174.887 351.998 174.234C351.885 174.075 351.195 174.305 351.329 174.492Z" fill="#CC6144"/>
<path d="M345.824 158.938C345.738 159.54 345.756 160.024 346.098 160.55C346.391 160.999 346.768 161.33 347.302 161.432C347.362 161.444 347.674 161.38 347.599 161.276C347.311 160.875 346.873 160.648 346.62 160.198C346.394 159.796 346.19 159.327 346.159 158.867C346.154 158.781 345.836 158.857 345.824 158.938Z" fill="#CC6144"/>
<path d="M363.627 162.612C363.683 162.612 363.819 162.528 363.701 162.528C363.644 162.528 363.509 162.612 363.627 162.612Z" fill="#CC6144"/>
<path d="M364.451 162.456C364.938 162.205 365.635 161.466 365.171 160.911C365.134 160.868 364.996 160.92 364.976 160.963C364.744 161.489 364.697 162.052 364.126 162.346C363.802 162.513 364.301 162.534 364.451 162.456Z" fill="#CC6144"/>
<path d="M363.72 251.734C363.93 248.58 365.373 246.114 367.307 243.672C368.806 241.779 370.678 240.553 372.398 238.923C372.585 238.745 372.393 238.409 372.144 238.486C369.635 239.269 367.603 241.821 366.101 243.857C364.527 245.99 362.344 248.998 363.309 251.789C363.387 252.014 363.704 251.972 363.72 251.734Z" fill="#874C2E"/>
<path d="M363.342 253.607C364.138 252.638 364.641 251.452 365.34 250.411C366.167 249.176 367.13 248.029 368.191 246.989C368.397 246.788 370.366 244.778 370.556 246.391C370.677 247.411 368.639 247.794 368.04 248.157C367.367 248.566 366.912 248.888 366.911 249.716C366.91 249.985 367.309 250.117 367.438 249.859C368.238 248.249 371.127 248.303 371.431 246.146C371.554 245.279 370.856 244.726 370.011 244.814C368.49 244.974 366.905 247.192 366.053 248.254C364.861 249.739 363.458 251.585 363.174 253.509C363.163 253.596 363.271 253.695 363.342 253.607Z" fill="#874C2E"/>
<path d="M333.865 292.762C333.871 295.33 333.825 297.814 332.925 300.259C332.03 302.693 330.404 304.55 328.897 306.608C328.783 306.764 329 306.94 329.148 306.858C333.544 304.423 335.769 297.365 334.266 292.707C334.197 292.493 333.864 292.524 333.865 292.762Z" fill="#874C2E"/>
<path d="M353.445 269.132C352.815 273.092 352.083 276.694 350.039 280.216C348.007 283.715 345.108 286.753 341.712 288.95C341.44 289.126 341.682 289.548 341.966 289.386C348.773 285.506 354.504 277.345 354.035 269.211C354.017 268.895 353.501 268.778 353.445 269.132Z" fill="#874C2E"/>
<path d="M375.746 168.394C376.602 168.044 377.701 167.711 378.243 166.916C378.327 166.794 378.214 166.639 378.081 166.635C377.148 166.608 376.239 167.293 375.481 167.765C375.167 167.961 375.371 168.547 375.746 168.394Z" fill="#874C2E"/>
<path d="M375.869 170.614C376.385 170.969 377.229 171.296 377.82 170.934C377.992 170.829 377.998 170.57 377.82 170.467C377.577 170.327 377.285 170.291 377.015 170.225C376.72 170.154 376.431 170.061 376.151 169.945C375.746 169.78 375.549 170.395 375.869 170.614Z" fill="#874C2E"/>
<path d="M375.082 174.831C375.584 175.131 376.256 175.612 376.87 175.571C377.019 175.561 377.133 175.403 377.047 175.263C376.723 174.735 375.968 174.474 375.429 174.237C375.033 174.063 374.692 174.599 375.082 174.831Z" fill="#874C2E"/>
<path d="M108.399 316.606H128.521H162.372H176.472H212.045H473.532H486.555H497.596" stroke="black" stroke-width="2.1886" stroke-miterlimit="10" stroke-linecap="round"/>
<path d="M103.48 316.609H81.6693" stroke="black" stroke-width="2.1886" stroke-miterlimit="10" stroke-linecap="round"/>
<path d="M504.401 316.609H500.745" stroke="black" stroke-width="2.1886" stroke-miterlimit="10" stroke-linecap="round"/>
<path d="M453.851 312.121H330.599C329.408 312.121 328.439 313.09 328.439 314.281V314.438C328.439 315.629 329.408 316.598 330.599 316.598H453.851C455.042 316.598 456.011 315.629 456.011 314.438V314.281C456.011 313.089 455.042 312.121 453.851 312.121Z" fill="#2D2442"/>
<path d="M477.916 257.213C452.27 256.954 426.623 256.695 400.977 256.436C397.335 256.398 393.693 256.362 390.051 256.325C389.485 256.319 388.756 256.655 388.517 257.205C381.471 273.475 374.424 289.743 367.377 306.013C366.372 308.335 365.366 310.657 364.361 312.979C364.327 313.056 364.309 313.132 364.286 313.209C364.286 313.21 364.285 313.212 364.285 313.212C364.263 313.287 364.241 313.362 364.229 313.437C364.027 314.378 364.505 315.485 365.665 315.626C365.934 315.705 366.21 315.722 366.47 315.655C392.83 315.861 419.189 316.067 445.548 316.273C449.311 316.303 453.074 316.332 456.837 316.361C457.678 316.368 458.271 315.794 458.55 315.058C465.576 296.525 472.602 277.993 479.628 259.461C480.049 258.354 478.979 257.224 477.916 257.213Z" fill="#2D2442"/>
<path d="M477.916 255.995C454.243 255.756 430.569 255.516 406.896 255.277C404.013 255.248 401.129 255.219 398.246 255.19C395.637 255.164 392.623 254.706 390.051 255.106C386.23 255.701 385.249 261.707 383.942 264.725C379.244 275.571 374.546 286.418 369.849 297.264C367.836 301.91 365.818 306.554 363.811 311.203C363.054 312.956 362.315 315.078 364.309 316.41C365.316 317.082 366.843 316.872 367.936 316.886C370.864 316.926 373.793 316.932 376.723 316.955C382.58 317.001 388.438 317.046 394.295 317.092C406.011 317.183 417.726 317.275 429.441 317.367C435.281 317.412 441.121 317.458 446.96 317.503C449.312 317.522 451.664 317.54 454.016 317.558C455.83 317.572 457.627 317.92 459.031 316.586C460.552 315.141 461.066 311.848 461.782 309.957C462.81 307.245 463.839 304.533 464.866 301.821C467.265 295.493 469.665 289.165 472.064 282.837C474.291 276.961 476.519 271.084 478.747 265.209C479.862 262.266 482.967 257.258 478.239 256.038C476.719 255.646 476.071 257.996 477.591 258.388C479.146 258.79 473.841 271.3 473.312 272.698C471.598 277.218 469.884 281.738 468.171 286.258C466.457 290.779 464.743 295.298 463.03 299.818C462.258 301.852 461.487 303.887 460.716 305.92C459.875 308.137 459.268 311.42 457.888 313.378C456.111 315.9 452.409 315.109 449.781 315.088C447.394 315.069 445.006 315.051 442.619 315.032C437.738 314.994 432.856 314.956 427.975 314.918C418.212 314.842 408.449 314.766 398.687 314.689C388.924 314.613 379.161 314.537 369.399 314.461C368.389 314.452 366.679 314.885 365.965 313.988C365.054 312.843 365.568 314.495 365.915 312.434C366.204 310.717 367.487 308.805 368.177 307.209C370.218 302.497 372.259 297.784 374.301 293.071C378.215 284.033 382.13 274.994 386.045 265.956C386.913 263.95 387.614 260.807 388.981 259.177C390.808 256.996 393.701 257.582 396.195 257.607C401.241 257.658 406.286 257.709 411.332 257.76C433.526 257.984 455.72 258.209 477.914 258.433C479.486 258.449 479.486 256.011 477.916 255.995Z" fill="#2D2442"/>
<path d="M418.864 292.506C422.148 292.506 424.809 290.566 424.809 288.173C424.809 285.779 422.148 283.839 418.864 283.839C415.581 283.839 412.919 285.779 412.919 288.173C412.919 290.566 415.581 292.506 418.864 292.506Z" fill="#5A4F72"/>
<path d="M430.296 290.873C432.009 290.873 433.397 289.861 433.397 288.612C433.397 287.363 432.009 286.351 430.296 286.351C428.583 286.351 427.195 287.363 427.195 288.612C427.195 289.861 428.583 290.873 430.296 290.873Z" fill="#5A4F72"/>
<path d="M284.938 300.749C288.732 300.294 295.451 299.275 295.62 296.939C293.165 295.353 290.457 293.747 287.537 293.605C285.208 293.491 282.947 294.349 280.816 295.297C279.003 296.102 277.223 296.983 275.483 297.936C274.769 298.326 272.9 299.724 272.87 300.697C272.833 301.907 275.055 301.192 275.936 301.254C278.944 301.468 281.956 301.107 284.938 300.749Z" fill="#C1ADA4"/>
<path d="M275.973 298.77C275.973 298.77 281.019 315.292 283.69 315.687C286.361 316.083 312.48 316.281 313.173 315.984C313.866 315.687 313.965 315.193 313.965 315.193C313.965 315.193 330.586 316.281 330.883 315.886C331.179 315.49 330.883 313.511 330.091 313.214C329.3 312.917 304.17 307.278 301.993 306.486C299.817 305.695 292.99 305.893 292.99 305.893L291.605 296.296L275.973 298.77Z" fill="#FE8E68"/>
<path d="M282.069 91.4606C283.706 93.2136 284.594 95.6438 284.473 98.0391C284.401 99.467 283.989 100.854 283.56 102.218C282.733 104.843 281.754 107.563 279.711 109.409C279.38 109.708 278.964 109.997 278.526 109.918C277.707 107.396 276.888 104.874 276.069 102.352C275.676 101.141 275.281 99.9236 275.06 98.6688C274.685 96.5475 274.82 94.3266 275.538 92.2959C275.864 91.3737 276.332 90.4619 277.11 89.8694C279.007 88.4252 280.781 90.0803 282.069 91.4606Z" fill="#433735"/>
<path d="M233.674 231.229C233.409 233.812 233.807 236.541 233.951 239.124C234.033 240.592 234.114 242.064 234.111 243.534C234.109 244.387 233.856 245.426 234.149 246.228C234.18 246.313 234.302 246.371 234.371 246.287C235.513 244.896 234.866 241.578 234.813 239.902C234.723 237.011 234.586 234.119 234.474 231.229C234.454 230.706 233.726 230.725 233.674 231.229Z" fill="#9B8580"/>
<path d="M241.032 226.131C238.285 232.37 236.759 238.718 232.995 244.549C232.782 244.879 233.311 245.187 233.521 244.856C236.85 239.627 240.472 232.45 241.346 226.263C241.369 226.092 241.118 225.935 241.032 226.131Z" fill="#9B8580"/>
<path d="M180.654 316.609L182.344 259.53L194.751 316.609H230.331C227.967 297.621 217.477 218.255 206.516 211.527L163.453 184.714C163.453 184.714 138.533 191.214 139.077 227.232C141.068 261.926 145.309 302.755 146.805 316.609H180.654V316.609Z" fill="#2D2442"/>
<path d="M295.526 296.998C294.601 298.398 289.899 297.346 288.508 297.481C287.265 297.602 286.086 298.073 284.877 298.388C281.028 299.392 276.729 298.864 273.268 300.826C273.16 300.887 273.038 300.952 272.919 300.917C272.788 300.877 272.725 300.733 272.678 300.604C270.468 294.484 268.741 288.097 266.806 281.86C263.898 272.487 260.99 263.114 258.082 253.742C256.58 248.901 255.078 244.059 253.576 239.218L243.013 190.264L247.709 155.756L248.822 147.615L248.903 146.997C248.903 146.997 249.13 147.078 249.553 147.224C251.024 147.744 254.802 149.158 258.986 151.197C265.69 154.472 273.441 159.38 274.497 164.937C274.5 164.957 274.502 164.976 274.505 164.995C275.064 168.89 275.691 172.777 276.302 176.664C277.388 183.559 278.487 190.453 279.59 197.346C280.962 205.923 282.34 214.498 283.72 223.074C285.158 232.01 286.599 240.946 288.043 249.881C289.33 257.854 290.62 265.827 291.91 273.799C292.831 279.487 293.753 285.174 294.675 290.862C294.93 292.435 295.185 294.008 295.44 295.582C295.486 295.859 295.721 296.503 295.633 296.772C295.607 296.854 295.572 296.929 295.526 296.998Z" fill="#EED9CE"/>
<path d="M248.905 146.998L248.824 147.615L247.711 155.757L243.015 190.265L220.029 204.426C218.829 205.166 217.795 210.251 217.307 211.524C215.72 215.661 214.334 219.957 212.52 223.999C212.148 224.828 211.815 227.084 210.991 227.588C209.334 228.601 202.596 227.211 200.516 227.078C192.812 226.583 185.026 225.452 177.981 222.131C172.41 219.507 167.477 215.793 162.234 212.606C159.031 210.658 155.458 209.442 152.067 207.877C149.803 206.831 144.908 204.827 144.036 202.162C143.784 201.393 144.174 200.576 144.545 199.858C146.164 196.722 147.24 192.944 149.152 190.034C150.915 187.35 153.086 184.929 154.805 182.179C158.264 176.647 161.317 170.803 165.638 165.867C172.993 157.464 179.172 147.863 186.749 139.483C190.112 135.762 200.594 132.22 205.607 132.016C210.165 131.829 214.585 132.577 218.453 133.657C221.565 134.535 224.328 135.623 226.505 136.606C229.698 138.053 231.64 139.279 231.64 139.279L248.905 146.998Z" fill="#EED9CE"/>
<path d="M257.398 192.905C259.818 191.417 271.128 184.198 272.141 181.59C272.611 180.379 275.178 176.652 277.393 173.156C278.705 171.086 282.028 167.025 282.867 166.156C284.305 164.664 286.383 160.969 287.637 162.184C289.2 163.699 286.759 167.488 285.384 169.812C284.879 170.665 284.336 171.521 284.118 172.487C283.899 173.454 283.948 174.174 284.515 174.987C284.824 175.43 286.938 175.641 287.647 175.61C292.988 175.376 295.306 175.69 299.29 174.206C303.274 172.723 306.996 170.628 310.754 168.64C311.399 168.3 311.789 167.601 313.243 167.466C313.968 167.4 315.503 167.498 315.422 168.222C315.358 168.786 310.871 172.291 310.408 172.619C307.921 174.387 308.201 174.188 305.713 175.956C305.326 176.23 304.911 176.549 304.816 177.013C304.736 177.403 304.905 177.798 304.914 178.196C304.928 178.907 304.435 179.518 303.951 180.04C303.1 180.956 302.194 181.81 301.25 182.62C299.928 183.753 301.007 184.719 299.567 185.713C297.979 186.809 293.861 187.923 292.234 188.953C290.931 189.778 289.621 190.607 288.191 191.179C286.477 191.864 284.64 192.164 282.832 192.536C277.877 193.559 269.207 202.536 265.016 205.5" fill="#FE8E68"/>
<path d="M285.846 191.879C285.846 191.879 292.072 191.091 297.025 188.788C301.98 186.484 314.222 178.931 314.222 178.931C314.222 178.931 314.391 178.501 314.261 178.201C314.131 177.902 312.271 177.487 310.773 178.138C309.274 178.789 299.682 182.953 299.682 182.953" fill="#FE8E68"/>
<path d="M284.61 189.789C284.61 189.789 292.5 188.143 297.454 185.839C302.408 183.536 314.65 175.982 314.65 175.982C314.65 175.982 314.819 175.552 314.689 175.252C314.559 174.952 312.7 174.538 311.201 175.189C309.702 175.839 300.11 180.004 300.11 180.004" fill="#FE8E68"/>
<path d="M287.101 185.25C287.101 185.25 294.99 183.604 299.945 181.3C304.899 178.997 312.592 175.06 316.95 172.086C317.237 171.89 317.312 171.013 317.182 170.714C317.052 170.414 315.192 170 313.693 170.651C312.195 171.301 302.603 175.465 302.603 175.465" fill="#FE8E68"/>
<path d="M257.84 137.992C257.84 137.992 276.935 149.638 281.403 126.075C282.486 116.325 283.841 100.481 275.715 94.2852C267.59 88.0898 248.902 87.3792 248.496 105.762C249.207 111.043 249.004 111.45 249.004 111.45C249.004 111.45 241.996 109.52 243.52 118.255C244.332 122.216 245.382 123.638 245.382 123.638C245.382 123.638 231.043 134.866 231.028 134.878C229.708 135.911 228.603 137.632 226.773 136.802C226.574 136.712 226.38 136.597 226.163 136.561C225.946 136.525 225.693 136.591 225.588 136.784C225.521 136.906 225.526 137.053 225.522 137.191C225.502 137.893 225.226 138.558 225.038 139.234C224.316 141.828 225.065 144.256 226.43 146.493C227.592 148.395 229.234 150.009 231.182 151.097C233.046 152.137 235.138 152.703 237.238 153.083C239.879 153.561 242.683 153.745 245.297 153.019C246.9 152.573 247.99 152.074 249.109 150.774C249.319 150.53 249.517 150.274 249.659 149.986C249.98 149.336 249.991 148.581 249.985 147.855C249.984 147.754 249.98 147.644 249.913 147.569C249.843 147.489 249.729 147.473 249.625 147.456C248.46 147.259 249.228 146.649 249.716 146.139C250.199 145.634 250.687 145.133 251.176 144.634C252.203 143.586 253.239 142.546 254.279 141.51C255.461 140.331 256.647 139.158 257.84 137.992Z" fill="#FE8E68"/>
<path d="M272.059 118.542C272.803 118.542 273.406 117.353 273.406 115.885C273.406 114.417 272.803 113.228 272.059 113.228C271.315 113.228 270.712 114.417 270.712 115.885C270.712 117.353 271.315 118.542 272.059 118.542Z" fill="#56211A"/>
<path d="M274.974 106.74C272.06 105.669 267.039 106.818 265.196 109.416C265.07 109.593 265.282 109.88 265.49 109.798C266.953 109.218 268.18 108.285 269.731 107.845C271.467 107.351 273.121 107.49 274.884 107.406C275.276 107.388 275.331 106.871 274.974 106.74Z" fill="#433735"/>
<path d="M282.112 113.455C281.673 114.867 282.115 116.478 282.688 117.841C283.26 119.204 284.14 120.413 285.012 121.608C285.405 122.145 285.797 122.683 286.189 123.221C284.961 123.629 283.764 124.133 282.613 124.727C281.922 125.084 281.177 125.568 281.04 126.335" fill="#FE8E68"/>
<path d="M273.322 127.761C274.144 128.043 275.03 128.14 275.893 128.033C275.979 128.023 276.08 128.015 276.139 128.08C276.176 128.121 276.183 128.181 276.187 128.236C276.244 129.088 275.879 129.905 275.522 130.68C275.282 131.2 275.037 131.729 274.66 132.161C273.868 133.067 272.091 133.642 270.962 133.089C270.455 132.841 270.081 132.382 269.79 131.898C268.998 130.582 268.44 128.356 269.112 126.872C269.562 125.88 269.679 126.246 270.551 126.647C271.359 127.018 272.198 127.313 273.017 127.646C273.118 127.688 273.219 127.726 273.322 127.761Z" fill="#FFFBF9"/>
<path d="M258.516 188.774C244.586 195.243 222.901 206.92 222.901 206.92L219.786 184.441L187.015 184.712C187.015 184.712 196.495 236.983 203.807 241.859C203.807 241.859 212.473 248.359 226.557 238.609C235.851 232.175 257.475 215.255 268.097 206.007L258.516 188.774Z" fill="#EED9CE"/>
<path d="M196.947 226.66C196.735 223.067 195.032 219.17 194.118 215.697C192.819 210.765 191.517 205.835 190.303 200.881C188.111 191.93 186.242 182.926 184.286 173.926C184.228 173.664 183.79 173.716 183.812 173.99C184.54 182.963 186.912 191.943 189.07 200.655C190.261 205.459 191.485 210.259 192.83 215.022C193.869 218.701 194.604 223.464 196.592 226.756C196.686 226.911 196.959 226.856 196.947 226.66Z" fill="#DBC4BD"/>
<path d="M267.302 204.824C260.497 209.313 254.436 215.198 248.858 221.102C248.37 221.619 249.148 222.4 249.639 221.883C255.312 215.902 261.58 210.848 267.879 205.572C268.291 205.226 267.752 204.527 267.302 204.824Z" fill="#DBC4BD"/>
<path d="M244.566 195.995C246.813 195.657 249.07 194.504 251.1 193.508C252.869 192.64 255.198 191.815 256.364 190.176C256.573 189.882 256.229 189.593 255.948 189.635C254.024 189.925 252.164 191.49 250.428 192.358C248.412 193.365 246.177 194.106 244.277 195.311C243.899 195.55 244.16 196.055 244.566 195.995Z" fill="#DBC4BD"/>
<path d="M225.912 136.236C223.395 133.649 220.929 138.259 220.174 140.36C218.151 145.983 219.359 152.684 220.996 158.234C222.988 164.99 226.32 171.173 228.1 178.017C230.127 185.811 231.62 193.619 231.315 201.705C231.296 202.204 232.054 202.197 232.086 201.705C232.78 191.164 230.243 179.375 226.31 169.623C224.323 164.697 222.096 159.963 220.921 154.75C220.261 151.82 219.843 148.759 219.981 145.749C220.034 144.571 222.054 133.345 225.387 136.761C225.722 137.104 226.246 136.58 225.912 136.236Z" fill="#9B8580"/>
<path d="M251.003 145.943C251.638 147.003 252.274 148.062 252.909 149.123C253.036 149.832 253.163 150.54 253.289 151.249C253.355 152.027 253.321 152.823 253.269 153.599C253.129 155.717 252.606 157.796 252.263 159.885C251.601 163.917 251.087 167.971 250.4 172C249.074 179.769 247.299 187.437 244.789 194.913C244.65 195.326 245.296 195.497 245.438 195.092C248.943 185.096 250.853 174.715 252.416 164.264C253.139 159.425 257.267 147.879 250.748 145.367C250.485 145.266 250.235 145.565 250.305 145.81C250.325 145.883 250.346 145.956 250.366 146.029C250.468 146.386 250.986 146.305 251.003 145.943Z" fill="#9B8580"/>
<path d="M241.961 241.553C241.966 240.892 241.367 240.221 240.675 240.267C235.992 240.581 231.309 240.895 226.626 241.209C225.917 241.257 225.361 241.76 225.34 242.495C225.136 249.707 225.52 257.002 225.136 264.202C225.101 264.86 225.755 265.539 226.422 265.488C231.038 265.139 235.658 264.829 240.269 264.433C240.306 264.43 240.339 264.419 240.375 264.414C240.9 264.447 241.402 264.176 241.509 263.49C242.62 256.407 241.906 248.713 241.961 241.553Z" fill="#D6CED7"/>
<path d="M242.848 115.3C240.744 115.585 239.145 116.088 237.614 114.159C237.001 113.386 236.507 112.575 235.552 112.216C235.43 112.169 235.333 112.348 235.425 112.433C236.614 113.519 237.469 115.383 239.033 115.981C240.272 116.454 241.804 116.113 242.951 115.543C243.099 115.47 242.985 115.281 242.848 115.3Z" fill="#594C4A"/>
<path d="M271.721 122.622C275.311 122.622 278.221 119.712 278.221 116.122C278.221 112.532 275.311 109.622 271.721 109.622C268.131 109.622 265.221 112.532 265.221 116.122C265.221 119.712 268.131 122.622 271.721 122.622Z" stroke="#F9F9F9" stroke-width="1.0943" stroke-miterlimit="10"/>
<path d="M278.416 114.415C278.656 114.275 278.758 114.052 278.97 113.873C279.279 113.61 279.688 113.462 280.083 113.39C280.449 113.322 280.838 113.322 281.188 113.458C281.516 113.587 281.594 113.893 281.892 114.024C281.975 114.06 282.051 114.043 282.105 113.968C282.129 113.936 282.153 113.903 282.177 113.87C282.24 113.783 282.218 113.667 282.177 113.578C281.796 112.763 280.709 112.691 279.936 112.855C279.276 112.994 278.089 113.5 278.211 114.331C278.224 114.423 278.346 114.455 278.416 114.415Z" fill="#F9F9F9"/>
<path d="M242.761 104.474C246.079 106.865 266.835 103.932 273.533 100.862C287.152 94.6206 288.485 83.6212 285.304 81.5555C284.92 81.3061 284.493 81.1071 284.038 81.0521C282.971 80.9229 281.987 81.586 281.117 82.2171C281.459 80.9734 282.695 75.5539 279.39 73.4044C274.953 70.5183 269.365 75.3987 268.456 76.0068C262.124 80.2443 258.704 80.9682 258.704 80.9682C258.704 80.9682 259.819 70.2829 251.068 78.492C248.312 81.0774 243.197 83.4883 240.451 86.0848C237.572 88.8068 235.932 93.2574 237.593 97.059" fill="#433735"/>
<path d="M252.49 98.0005C254.387 99.5456 255.238 102.02 255.785 104.405C256.61 107.996 256.94 111.818 255.797 115.321C255.471 116.317 255.875 120.916 255.096 120.789C254.848 120.748 254.303 117.224 253.369 115.428C251.924 112.646 247.329 112.262 245.655 114.445C243.581 117.15 244.914 119.054 245.835 121.751C246.519 123.754 245.844 126.272 243.394 126.967C241.111 127.614 241.766 125.884 240.856 124.263C238.899 120.777 236.847 117.725 235.531 113.841C233.456 107.716 231.748 98.4207 238.159 94.1773C239.762 93.1156 245.047 91.8214 246.831 92.5401" fill="#433735"/>
<path d="M272.531 117.831C272.853 117.831 273.115 117.49 273.115 117.07C273.115 116.649 272.853 116.308 272.531 116.308C272.209 116.308 271.947 116.649 271.947 117.07C271.947 117.49 272.209 117.831 272.531 117.831Z" fill="white"/>
<path d="M250.924 111.666C251.879 113.55 254.102 113.923 255.988 114.395C258.708 115.077 261.613 115.615 264.427 115.605C264.918 115.604 264.887 114.92 264.427 114.863C262.014 114.56 259.619 114.348 257.236 113.83C255.279 113.404 252.614 113.029 251.282 111.389C251.111 111.179 250.812 111.447 250.924 111.666Z" fill="#F9F9F9"/>
<path d="M253.938 133.313C254.948 135.246 256.535 137.148 258.51 138.146C258.601 138.191 258.697 138.079 258.621 138.002C257.061 136.421 255.513 134.968 254.186 133.169C254.078 133.022 253.85 133.146 253.938 133.313Z" fill="#CC6144"/>
<path d="M292.869 110.396C293.797 109.789 294.794 109.218 295.531 108.376C295.584 108.316 295.535 108.193 295.445 108.228C294.407 108.63 293.533 109.358 292.648 110.018C292.427 110.182 292.627 110.553 292.869 110.396Z" fill="#433735"/>
<path d="M294.216 112.978C294.911 112.83 295.793 112.668 296.383 112.257C296.538 112.149 296.481 111.914 296.287 111.903C295.568 111.862 294.732 112.185 294.062 112.422C293.712 112.546 293.85 113.057 294.216 112.978Z" fill="#433735"/>
<path d="M294.47 116.166C294.904 116.05 295.335 115.949 295.782 115.9C296.146 115.859 296.519 115.862 296.875 115.78C296.98 115.756 297.008 115.591 296.907 115.542C296.136 115.17 295.094 115.351 294.331 115.658C294.024 115.781 294.134 116.257 294.47 116.166Z" fill="#433735"/>
<path d="M157.119 211.218C155.227 211.158 155.304 214.112 155.13 215.377C154.894 217.091 154.413 219.304 155.887 220.601C156.141 220.825 156.483 220.659 156.517 220.339C156.526 220.259 156.534 220.179 156.543 220.099C156.562 219.915 156.348 219.853 156.216 219.911C156.131 219.947 156.046 219.984 155.962 220.021C156.13 220.065 156.299 220.109 156.467 220.153C155.601 218.834 155.695 217.552 155.884 216.061C156.073 214.56 155.965 212.568 157.254 211.541C157.389 211.432 157.268 211.223 157.119 211.218Z" fill="black"/>
<path d="M159.278 212.665C158.099 214.612 157.815 218.224 158.775 220.297C158.889 220.543 159.245 220.402 159.254 220.167C159.305 218.918 159.003 217.695 159.077 216.432C159.15 215.186 159.514 213.995 159.623 212.758C159.64 212.568 159.367 212.518 159.278 212.665Z" fill="black"/>
<path d="M195.84 228.37C195.59 229.143 195.352 229.923 195.01 230.662C194.696 231.339 194.222 231.932 193.925 232.611C193.785 232.93 194.139 233.245 194.42 232.993C195.576 231.957 196.213 229.942 196.325 228.436C196.347 228.147 195.923 228.116 195.84 228.37Z" fill="black"/>
<path d="M197.491 231.022C197.256 231.874 196.867 232.581 196.474 233.363C196.307 233.696 196.766 234.122 197.025 233.788C197.616 233.03 197.891 232.033 197.957 231.085C197.977 230.814 197.561 230.769 197.491 231.022Z" fill="black"/>
<path d="M141.253 211.114C143.595 212.524 146.051 213.716 148.382 215.183C150.417 216.463 152.554 217.663 154.972 217.985C155.328 218.032 155.405 217.435 155.057 217.359C152.248 216.746 149.95 215.395 147.554 213.86C145.715 212.682 143.562 211.065 141.309 210.908C141.196 210.9 141.164 211.059 141.253 211.114Z" fill="black"/>
<path d="M158.999 218.462C164.925 221.533 170.518 225.333 176.589 228.106C179.37 229.376 182.287 230.261 185.28 230.872C188.116 231.452 191.473 232.24 194.357 231.93C194.651 231.899 194.76 231.464 194.431 231.38C191.34 230.602 187.99 230.671 184.846 229.984C181.689 229.296 178.667 228.274 175.765 226.853C170.154 224.106 165.048 220.232 159.202 217.98C158.924 217.873 158.736 218.325 158.999 218.462Z" fill="black"/>
<path d="M185.863 260.687C186.804 259.598 187.766 258.519 188.856 257.575C189.473 257.041 192.624 254.24 193.59 255.177C193.683 255.266 193.856 255.178 193.813 255.047C193.331 253.559 191.221 255.096 190.519 255.559C188.561 256.849 186.839 258.49 185.632 260.509C185.549 260.649 185.752 260.815 185.863 260.687Z" fill="black"/>
<path d="M178.804 259.82C175.911 256.957 172.056 254.959 167.941 254.791C167.824 254.786 167.798 254.969 167.913 254.995C171.892 255.902 175.409 257.396 178.482 260.142C178.699 260.336 179.014 260.028 178.804 259.82Z" fill="black"/>
<path d="M185.575 262.583C189.116 263.832 191.896 266.038 192.709 269.875C192.886 269.739 193.064 269.602 193.242 269.466C192.325 268.878 191.536 268.151 190.864 267.295C190.387 266.687 190.045 265.874 189.491 265.335C188.885 264.747 187.924 264.55 187.204 265.017C187.163 265.043 187.188 265.118 187.239 265.1C188.845 264.506 189.758 266.994 190.512 267.925C191.199 268.772 192.005 269.447 192.876 270.093C193.153 270.299 193.464 269.96 193.409 269.683C192.676 266.038 189.531 262.41 185.63 262.181C185.387 262.166 185.368 262.509 185.575 262.583Z" fill="black"/>
<path d="M140.827 235.239C144.452 232.999 147.759 230.246 149.743 226.404C149.989 225.929 149.271 225.508 149.024 225.984C147.102 229.706 143.918 232.35 140.407 234.521C139.953 234.802 140.37 235.522 140.827 235.239Z" fill="black"/>
<path d="M184.159 231.022C184.409 234.771 184.964 238.433 184.886 242.207C184.804 246.165 184.302 250.096 183.438 253.958C183.356 254.324 183.919 254.481 184.002 254.113C184.858 250.311 185.374 246.457 185.472 242.559C185.568 238.761 185.497 234.664 184.472 230.979C184.425 230.811 184.146 230.837 184.159 231.022Z" fill="black"/>
<path d="M183.482 255.583C183.128 256.177 183.066 256.955 182.937 257.627C182.822 258.222 182.588 258.901 182.781 259.49C182.819 259.604 182.96 259.617 183.025 259.522C183.39 258.995 183.372 258.246 183.486 257.625C183.603 256.988 183.846 256.317 183.796 255.669C183.785 255.507 183.572 255.432 183.482 255.583Z" fill="black"/>
<path d="M189.437 231.428C189.336 234.39 189.45 237.368 189.478 240.331C189.505 243.098 189.763 245.969 189.484 248.725C189.025 253.266 184.604 255.577 182.95 259.566C182.84 259.833 183.3 260.029 183.419 259.765C185.159 255.92 189.427 253.765 190.118 249.381C190.543 246.687 190.21 243.79 190.165 241.074C190.112 237.865 190.152 234.634 189.957 231.429C189.937 231.095 189.449 231.091 189.437 231.428Z" fill="black"/>
<path d="M223.053 145.941C222.991 151.48 228.825 154.975 233.808 155.464C234.204 155.502 234.223 154.932 233.896 154.811C231.558 153.947 229.186 153.506 227.119 152.003C225.142 150.565 223.685 148.405 223.408 145.941C223.384 145.719 223.056 145.706 223.053 145.941Z" fill="#C1ADA4"/>
<path d="M236.918 155.429C237.7 155.602 238.488 155.591 239.285 155.603C240.095 155.614 240.866 155.645 241.638 155.375C241.82 155.311 241.82 155.069 241.638 155.005C240.866 154.735 240.095 154.764 239.285 154.777C238.488 154.789 237.699 154.778 236.918 154.951C236.681 155.003 236.681 155.377 236.918 155.429Z" fill="#C1ADA4"/>
<path d="M183.818 175.501C183.681 174.121 183.258 172.931 182.333 171.879C181.623 171.072 180.137 169.873 178.989 170.166C178.789 170.217 178.694 170.508 178.861 170.651C179.253 170.984 179.713 171.044 180.176 171.262C180.738 171.528 181.245 171.893 181.698 172.316C182.606 173.164 183.307 174.315 183.515 175.543C183.543 175.712 183.835 175.674 183.818 175.501Z" fill="#C1ADA4"/>
<path d="M252.054 120.46C252.659 118.471 250.638 114.454 248.201 115.305C247.487 115.553 247.944 115.9 248.501 115.748C249.095 115.586 250.246 117.562 250.425 117.903C250.878 118.766 250.955 119.749 251.387 120.602C251.478 120.779 252.005 120.623 252.054 120.46Z" fill="#CC6144"/>
<path d="M250.616 117.588C250.597 116.925 250 116.583 249.383 116.648C249.057 116.683 248.699 116.793 248.437 116.996C248.279 117.117 248.064 117.382 248.234 117.558C248.327 117.654 248.583 117.547 248.667 117.488C248.909 117.319 249.038 117.037 249.319 117.159C249.584 117.273 249.774 117.521 249.859 117.79C249.927 118.005 250.623 117.806 250.616 117.588Z" fill="#CC6144"/>
<path d="M270.214 117.603C270.32 118.349 270.833 118.838 271.602 118.812C271.633 118.812 271.855 118.754 271.789 118.697C271.6 118.53 271.366 118.428 271.174 118.258C270.947 118.057 270.709 117.781 270.592 117.502C270.55 117.399 270.199 117.493 270.214 117.603Z" fill="#CC6144"/>
<path d="M218.335 168.057C218.608 175.878 219.564 183.662 220.566 191.418C221.08 195.397 221.297 199.957 222.4 203.699C222.518 204.098 223.058 203.921 223.005 203.533C223.004 203.528 223.003 203.523 223.003 203.518C222.948 203.12 222.344 203.29 222.398 203.685C222.399 203.69 222.4 203.694 222.4 203.699C222.602 203.644 222.804 203.588 223.005 203.533C223.058 203.715 223.019 202.876 223.003 202.681C222.935 201.882 222.78 201.085 222.667 200.292C222.233 197.258 221.821 194.221 221.429 191.181C220.435 183.49 219.551 175.778 218.831 168.056C218.802 167.745 218.323 167.733 218.335 168.057Z" fill="#C1ADA4"/>
<path d="M231.792 202.199C228.738 202.867 225.908 204.259 223.078 205.591C220.153 206.967 217.131 208.268 214.465 210.112C214.274 210.244 214.384 210.58 214.631 210.505C220.675 208.685 226.184 205.062 231.94 202.55C232.148 202.459 231.994 202.155 231.792 202.199Z" fill="#C1ADA4"/>
<path d="M284.359 235.033C283.548 237.931 283.368 240.775 282.157 243.597C280.879 246.577 278.994 248.887 276.996 251.397C276.753 251.703 277.12 252.078 277.426 251.827C279.869 249.821 281.672 246.782 282.906 243.913C284.027 241.303 285.176 237.911 284.72 235.033C284.69 234.843 284.406 234.867 284.359 235.033Z" fill="#C1ADA4"/>
<path d="M154.842 208.635C154.155 206.293 153.612 203.861 153.565 201.413C153.517 198.895 154.168 196.594 154.552 194.142C154.599 193.837 154.183 193.596 154.013 193.915C151.71 198.244 152.327 204.556 154.38 208.83C154.506 209.09 154.921 208.907 154.842 208.635Z" fill="#C1ADA4"/>
<path d="M161.503 211.873C160.93 210.389 160.288 208.92 159.864 207.383C159.705 206.807 159.035 204.972 159.382 204.536C160.748 203.904 161.489 204.209 161.607 205.45C161.697 205.98 161.734 206.514 161.717 207.05C161.717 207.298 162.1 207.361 162.158 207.109C162.459 205.777 161.288 201.307 159.189 202.962C158.277 203.682 158.75 205.493 158.947 206.415C159.367 208.378 160.304 210.213 161.092 212.045C161.192 212.277 161.595 212.11 161.503 211.873Z" fill="#C1ADA4"/>
<path d="M175.679 220.665C174.097 218.114 173.386 215.556 172.576 212.712C172.528 212.542 172.28 212.58 172.273 212.753C172.152 215.679 173.581 218.67 175.386 220.891C175.52 221.057 175.79 220.843 175.679 220.665Z" fill="#C1ADA4"/>
<path d="M188.373 225.616C190.583 225.417 193.516 223.767 193.876 221.338C193.908 221.129 193.651 220.904 193.478 221.105C192.788 221.906 192.304 222.818 191.48 223.515C190.577 224.277 189.444 224.825 188.308 225.137C188.053 225.209 188.092 225.641 188.373 225.616Z" fill="#C1ADA4"/>
<path d="M188.427 223.137C189.868 222.642 191.647 221.362 191.905 219.739C191.936 219.544 191.69 219.329 191.53 219.521C191.047 220.095 190.7 220.75 190.159 221.283C189.596 221.836 188.915 222.269 188.196 222.589C187.888 222.727 188.107 223.246 188.427 223.137Z" fill="#C1ADA4"/>
<path d="M269.717 136.446C270.383 136.17 270.847 136.61 271.465 136.781C271.531 136.8 271.715 136.777 271.737 136.693C271.87 136.194 271.192 136.023 270.809 135.987C270.324 135.94 269.797 136.033 269.408 136.341C269.19 136.514 269.632 136.482 269.717 136.446Z" fill="#CC6144"/>
<path d="M484.753 103.161H405.676C398.955 103.161 393.214 108.008 392.088 114.634L385.258 154.814C383.827 163.228 390.31 170.907 398.846 170.907H399.247L396.167 187.377L411.377 170.907H477.922C484.644 170.907 490.385 166.059 491.511 159.433L498.341 119.254C499.771 110.839 493.288 103.161 484.753 103.161Z" fill="#EED9CE"/>
<g opacity="0.16">
<path d="M439.376 118.308C447.801 118.762 456.252 118.869 464.686 119.056C468.844 119.148 473.001 119.239 477.158 119.331C481.384 119.425 485.788 119.874 489.997 119.484C490.431 119.444 490.621 118.72 490.11 118.65C486.112 118.099 481.924 118.32 477.892 118.228C473.612 118.131 469.333 118.033 465.053 117.935C456.499 117.741 447.932 117.462 439.376 117.539C438.879 117.543 438.885 118.281 439.376 118.308Z" fill="black"/>
</g>
<g opacity="0.16">
<path d="M437.1 128.556C445.331 129.031 453.574 129.262 461.819 129.226C465.883 129.208 469.946 129.127 474.008 128.982C477.965 128.842 482.044 128.876 485.96 128.266C486.517 128.18 486.358 127.326 485.831 127.313C481.785 127.207 477.684 127.679 473.638 127.817C469.576 127.956 465.513 128.032 461.449 128.044C453.328 128.07 445.208 127.834 437.1 127.363C436.333 127.317 436.335 128.511 437.1 128.556Z" fill="black"/>
</g>
<g opacity="0.16">
<path d="M437.155 136.734C444.594 137.408 452.075 138.143 459.542 138.429C466.996 138.714 474.509 138.266 481.956 138.009C482.94 137.975 482.944 136.439 481.956 136.477C474.501 136.765 467.007 137.325 459.542 137.077C452.071 136.829 444.628 136.029 437.155 135.757C436.518 135.733 436.538 136.679 437.155 136.734Z" fill="black"/>
</g>
<g opacity="0.16">
<path d="M399.269 144.326C420.474 146.088 441.867 146.2 463.133 146.385C468.196 146.428 473.295 146.532 478.354 146.311C479.184 146.275 479.191 145.036 478.354 145.016C468.534 144.788 458.692 144.993 448.87 144.897C437.4 144.785 425.93 144.588 414.466 144.206C409.399 144.037 404.332 143.911 399.269 143.613C398.808 143.585 398.816 144.288 399.269 144.326Z" fill="black"/>
</g>
<g opacity="0.16">
<path d="M398.36 151.541C419.328 153.288 440.46 153.597 461.49 153.863C466.496 153.926 471.539 154.046 476.542 153.827C477.372 153.79 477.379 152.552 476.542 152.532C466.725 152.299 456.889 152.455 447.068 152.308C435.839 152.14 424.61 151.878 413.388 151.457C408.377 151.269 403.366 151.123 398.36 150.828C397.899 150.8 397.908 151.503 398.36 151.541Z" fill="black"/>
</g>
<g opacity="0.16">
<path d="M402.337 114.231C401.346 117.839 401.262 121.565 401.248 125.284C401.24 127.172 401.242 129.063 401.101 130.946C400.954 132.924 400.247 134.824 400.147 136.772C400.112 137.463 401.081 137.672 401.413 137.115C402.199 135.796 402.305 134.098 402.484 132.589C402.719 130.609 402.75 128.613 402.753 126.621C402.76 122.579 402.665 118.556 403.813 114.637C404.091 113.69 402.598 113.279 402.337 114.231Z" fill="black"/>
</g>
<g opacity="0.16">
<path d="M403.829 114.74C413.367 114.927 422.856 115.234 432.345 116.295C432.055 115.914 431.766 115.534 431.475 115.153C430.456 122.436 429.805 129.7 429.821 137.059C429.824 138.503 432.074 138.505 432.064 137.059C432.015 129.83 432.322 122.565 433.248 115.393C433.315 114.876 432.778 114.534 432.345 114.49C422.898 113.535 413.317 113.027 403.829 113.597C403.099 113.641 403.087 114.726 403.829 114.74Z" fill="black"/>
</g>
<g opacity="0.16">
<path d="M401.798 138.146C406.495 137.613 411.22 137.421 415.944 137.625C418.189 137.722 420.431 137.903 422.662 138.171C423.963 138.327 425.258 138.522 426.555 138.715C427.664 138.88 428.496 139.166 429.551 138.757C430.095 138.547 430.44 137.809 429.922 137.351C428.401 136.006 425.677 136.112 423.719 135.909C421.253 135.654 418.777 135.504 416.299 135.457C411.364 135.362 406.446 135.702 401.561 136.388C400.572 136.527 400.794 138.26 401.798 138.146Z" fill="black"/>
</g>
<g opacity="0.16">
<path d="M406.206 118.75C405.846 122.582 405.565 126.427 405.406 130.273C405.367 131.214 406.89 131.22 406.872 130.273C406.799 126.42 406.886 122.593 407.177 118.75C407.224 118.125 406.263 118.136 406.206 118.75Z" fill="black"/>
</g>
<g opacity="0.16">
<path d="M406.298 131.007C413.807 131.479 421.405 131.871 428.93 131.884C429.894 131.885 429.88 130.451 428.93 130.396C421.421 129.955 413.818 129.888 406.298 129.907C405.584 129.909 405.596 130.963 406.298 131.007Z" fill="black"/>
</g>
<g opacity="0.16">
<path d="M409.674 127.802C409.975 126.902 410.276 126.002 410.576 125.101C410.829 124.346 411.049 122.834 411.599 122.254C413.127 120.645 415.296 125.578 415.763 126.271C416.652 127.594 418.242 128.595 419.42 126.938C420.204 125.835 420.24 124.33 420.83 123.136C420.871 122.508 421.212 122.129 421.853 121.997C422.126 122.344 422.4 122.689 422.673 123.035C423.122 123.603 423.547 124.293 424.133 124.735C424.715 125.175 425.377 125.339 426.072 125.045C427.231 124.556 427.255 122.929 428.331 122.44C430.678 121.375 426.351 118.886 426.611 121.453C426.698 122.32 425.844 123.852 424.871 123.347C424.27 123.035 423.71 122.025 423.254 121.525C422.685 120.902 421.949 119.947 420.961 120.335C420.249 120.614 420.096 121.481 419.86 122.109C419.515 123.028 419.143 123.939 418.777 124.85C418.726 125.665 418.301 126.075 417.5 126.081C417.202 125.719 416.93 125.338 416.686 124.938C415.7 123.498 414.385 120.271 412.104 120.657C411.171 120.814 410.74 121.494 410.368 122.296C409.613 123.929 409.183 125.802 408.613 127.509C408.388 128.183 409.451 128.471 409.674 127.802Z" fill="black"/>
</g>
<path d="M369.077 37.2421H316.991C312.564 37.2421 308.783 40.4349 308.041 44.7993L303.542 71.265C302.6 76.8078 306.871 81.865 312.492 81.865H312.756L307.54 89.4511L320.746 81.865H364.579C369.005 81.865 372.787 78.6722 373.529 74.3078L378.028 47.8421C378.97 42.2993 374.7 37.2421 369.077 37.2421Z" fill="#D6CED7"/>
<g opacity="0.16">
<path d="M315.657 46.4894C325.127 46.9757 334.617 47.1643 344.096 47.4212C348.774 47.5482 353.452 47.6744 358.131 47.8014C362.891 47.9306 367.782 48.3909 372.534 48.0783C373.013 48.0471 372.995 47.4027 372.534 47.3477C367.923 46.7931 363.142 46.9757 358.5 46.848C353.699 46.7158 348.897 46.5829 344.096 46.4508C334.62 46.1894 325.137 45.8597 315.657 45.8286C315.23 45.8271 315.234 46.4678 315.657 46.4894Z" fill="black"/>
</g>
<g opacity="0.16">
<path d="M313.254 53.2537C322.369 53.6918 331.49 53.9725 340.614 54.0824C345.053 54.1358 349.492 54.1499 353.931 54.1247C358.596 54.098 363.338 54.2353 367.986 53.827C368.516 53.7802 368.531 53.0139 367.986 52.9916C363.441 52.8075 358.852 53.083 354.301 53.109C349.739 53.1357 345.177 53.1208 340.615 53.0644C331.49 52.9515 322.369 52.6679 313.255 52.2269C312.594 52.1949 312.596 53.2226 313.254 53.2537Z" fill="black"/>
</g>
<g opacity="0.16">
<path d="M311.808 59.3575C329.507 60.7296 347.352 60.8699 365.089 60.2462C365.737 60.2232 365.74 59.2127 365.089 59.2372C347.308 59.8906 329.575 59.5579 311.808 58.7137C311.391 58.6937 311.399 59.3255 311.808 59.3575Z" fill="black"/>
</g>
<g opacity="0.16">
<path d="M310.394 65.9418C322.562 67.0125 334.954 67.6956 347.171 67.2575C347.719 67.2382 347.722 66.414 347.171 66.4051C334.895 66.2024 322.661 66.1319 310.394 65.4718C310.089 65.4555 310.096 65.9158 310.394 65.9418Z" fill="black"/>
</g>
<path d="M183.73 52.0514H112.434C106.374 52.0514 101.198 56.4218 100.182 62.3959L94.0241 98.6226C92.7344 106.209 98.5801 113.133 106.275 113.133H166.539L177.051 126.38L177.476 113.133H177.572C183.631 113.133 188.807 108.762 189.823 102.788L195.981 66.5614C197.271 58.9745 191.425 52.0514 183.73 52.0514Z" fill="#D6CED7"/>
<g opacity="0.29">
<path d="M137.733 65.4327C146.181 65.8002 154.641 65.948 163.094 66.1455C167.26 66.2428 171.426 66.3408 175.591 66.438C179.857 66.5375 184.194 66.8657 188.456 66.6563C188.807 66.6393 188.798 66.1507 188.456 66.118C184.327 65.72 180.106 65.8359 175.959 65.7371C171.671 65.6347 167.382 65.5329 163.094 65.4305C154.643 65.2293 146.187 64.9775 137.733 64.9456C137.418 64.9449 137.421 65.4193 137.733 65.4327Z" fill="black"/>
</g>
<g opacity="0.29">
<path d="M135.486 74.6078C143.611 75.0585 151.747 75.2954 159.884 75.2984C167.966 75.3013 176.271 75.4595 184.31 74.5603C184.694 74.5172 184.717 73.9463 184.31 73.9448C176.175 73.9218 168.03 74.5536 159.884 74.5484C151.747 74.5432 143.611 74.3041 135.486 73.8512C134.999 73.8245 135.001 74.5811 135.486 74.6078Z" fill="black"/>
</g>
<g opacity="0.29">
<path d="M105.34 82.1761C129.582 83.9381 153.986 84.1868 178.272 83.3099C178.863 83.2884 178.866 82.3677 178.272 82.3892C153.941 83.2684 129.649 82.8704 105.34 81.5888C104.961 81.5688 104.966 82.1487 105.34 82.1761Z" fill="black"/>
</g>
<g opacity="0.29">
<path d="M103.396 91.2262C120.069 92.6021 137.003 93.4871 153.737 92.9399C154.237 92.9236 154.24 92.1685 153.737 92.1618C136.928 91.9442 120.186 91.8002 103.396 90.7971C103.119 90.7815 103.123 91.2039 103.396 91.2262Z" fill="black"/>
</g>
<g opacity="0.29">
<path d="M107.862 61.7328C107.357 65.2263 106.615 68.82 106.379 72.3394C106.237 74.4496 107.242 75.4631 109.289 75.8099C112.822 76.4083 116.502 76.5309 120.069 76.8509C122.207 77.0424 126.103 77.9178 127.877 76.1551C128.741 75.2961 128.521 73.9781 128.462 72.8777C128.379 71.3126 128.202 69.7511 128.199 68.1822C128.196 66.2138 128.77 64.6011 129.209 62.7337C129.41 61.8776 129.451 61.0237 128.872 60.2923C127.476 58.5244 123.981 59.1697 122.055 59.1764C118.145 59.1905 114.231 59.2959 110.322 59.3687C109.103 59.3917 109.157 61.363 110.322 61.2272C115.394 60.6346 120.613 60.2634 125.724 60.5069C126.848 60.5604 127.998 60.4891 127.975 62.3936C127.97 62.8324 127.644 63.3626 127.522 63.7791C127.227 64.7808 127.087 65.8158 127.041 66.8568C126.991 67.9676 127.072 69.0828 127.166 70.1892C127.264 71.3385 127.64 72.7382 127.485 73.8809C127.21 75.9124 125.574 76.1373 123.845 76.0891C122.584 76.0542 121.324 75.8945 120.068 75.7898C117.501 75.5753 114.932 75.3807 112.363 75.1758C111.317 75.0926 109.321 75.3206 108.388 74.7823C107.702 74.3865 107.132 73.0797 107.089 72.3387C107.046 71.6125 107.34 70.5144 107.444 69.7622C107.804 67.1494 108.249 64.5521 108.626 61.9429C108.701 61.4432 107.935 61.2272 107.862 61.7328Z" fill="black"/>
</g>
<g opacity="0.29">
<path d="M115.274 70.0103C115.59 68.3018 115.738 66.5643 115.945 64.8402C115.854 64.9976 115.764 65.155 115.674 65.3125C115.983 65.1068 119.011 68.7421 119.353 69.1297C119.443 68.7874 119.533 68.4458 119.624 68.1035C118.31 68.6374 116.989 69.1519 115.68 69.6984C114.95 70.0036 115.257 71.2116 116.015 70.9094C117.333 70.3837 118.638 69.8261 119.951 69.2871C120.383 69.1096 120.552 68.6337 120.222 68.2609C119.386 67.3202 118.532 66.3973 117.638 65.5122C117.137 65.0162 116.365 63.9804 115.521 64.1631C114.7 64.3405 114.814 65.2367 114.749 65.8924C114.619 67.2251 114.461 68.555 114.419 69.8937C114.403 70.3756 115.183 70.5003 115.274 70.0103Z" fill="black"/>
</g>
<path d="M421.796 210.575C422.752 210.575 423.528 209.799 423.528 208.842C423.528 207.886 422.752 207.11 421.796 207.11C420.839 207.11 420.064 207.886 420.064 208.842C420.064 209.799 420.839 210.575 421.796 210.575Z" fill="#2D2442"/>
<path d="M427.272 210.575C428.228 210.575 429.004 209.799 429.004 208.842C429.004 207.886 428.228 207.11 427.272 207.11C426.315 207.11 425.539 207.886 425.539 208.842C425.539 209.799 426.315 210.575 427.272 210.575Z" fill="#2D2442"/>
<path d="M432.748 210.575C433.704 210.575 434.48 209.799 434.48 208.842C434.48 207.886 433.704 207.11 432.748 207.11C431.791 207.11 431.015 207.886 431.015 208.842C431.015 209.799 431.791 210.575 432.748 210.575Z" fill="#2D2442"/>
<path d="M428.477 80.3896C429.434 80.3896 430.209 79.614 430.209 78.6573C430.209 77.7006 429.434 76.925 428.477 76.925C427.521 76.925 426.745 77.7006 426.745 78.6573C426.745 79.614 427.521 80.3896 428.477 80.3896Z" fill="#2D2442"/>
<path d="M433.953 80.3896C434.91 80.3896 435.685 79.614 435.685 78.6573C435.685 77.7006 434.91 76.925 433.953 76.925C432.996 76.925 432.221 77.7006 432.221 78.6573C432.221 79.614 432.996 80.3896 433.953 80.3896Z" fill="#2D2442"/>
<path d="M439.429 80.3896C440.386 80.3896 441.161 79.614 441.161 78.6573C441.161 77.7006 440.386 76.925 439.429 76.925C438.472 76.925 437.697 77.7006 437.697 78.6573C437.697 79.614 438.472 80.3896 439.429 80.3896Z" fill="#2D2442"/>
<path d="M117.646 146.718C118.603 146.718 119.378 145.942 119.378 144.986C119.378 144.029 118.603 143.253 117.646 143.253C116.689 143.253 115.914 144.029 115.914 144.986C115.914 145.942 116.689 146.718 117.646 146.718Z" fill="#2D2442"/>
<path d="M123.122 146.718C124.079 146.718 124.854 145.942 124.854 144.986C124.854 144.029 124.079 143.253 123.122 143.253C122.165 143.253 121.39 144.029 121.39 144.986C121.39 145.942 122.165 146.718 123.122 146.718Z" fill="#2D2442"/>
<path d="M128.598 146.718C129.555 146.718 130.33 145.942 130.33 144.986C130.33 144.029 129.555 143.253 128.598 143.253C127.641 143.253 126.866 144.029 126.866 144.986C126.866 145.942 127.641 146.718 128.598 146.718Z" fill="#2D2442"/>
</svg>
