<svg width="753" height="198" viewBox="0 0 753 198" fill="none" xmlns="http://www.w3.org/2000/svg">
<path d="M368.641 55.0599C364.991 53.9699 361.591 52.2799 357.941 51.1499C344.571 47.0399 311.721 42.1599 305.611 59.2899C298.901 78.1199 334.171 85.8399 346.411 91.0299C366.401 99.5199 383.381 112.31 384.681 135.83C386.231 163.96 365.911 182.27 340.341 188.53C315.411 194.64 285.481 191.78 262.061 181.45L269.901 149.6C279.421 153.84 289.481 157.33 299.841 158.94C312.961 160.97 339.281 162.21 343.021 145.18C347.381 125.36 317.371 119.47 304.051 114.03C279.381 103.94 259.101 86.5699 265.141 57.0899C273.951 14.0999 333.121 10.3699 367.201 20.5099C368.701 20.9599 376.971 23.5499 377.231 24.4899L368.631 55.0499L368.641 55.0599Z" fill="white"/>
<path d="M217.4 38.45C246.77 67.34 262.99 114.95 240.12 152.95C230.69 168.61 211.77 181.92 195.51 189.77C192.05 191.44 188.41 192.87 184.74 194.01C184.56 193.19 184.92 192.91 185.33 192.35C192.87 182.14 197.32 176.75 200.26 163.7C211.01 116.03 184.89 61.36 138.22 44.19L77.3696 24.21L77.3496 23.01C79.8996 22.52 82.8196 21.44 85.2896 20.46C102.22 13.74 119.09 6.83 135.98 0C149.76 5.45 164.26 9.13 178.22 14.1C194.1 19.76 205.41 26.67 217.41 38.47L217.4 38.45Z" fill="white"/>
<path d="M82.2891 40.46L136.409 56.27L136.659 157.97C136.959 158.84 139.359 159.39 140.299 159.68C153.539 163.77 167.559 166.45 180.709 170.69C181.619 170.98 183.949 171.46 183.939 172.42C183.939 172.69 181.589 176.54 181.209 177.11C174.019 188.08 162.329 194.65 149.529 196.84C128.469 200.43 104.389 188.33 83.6191 184.26L82.3091 183.52V40.46H82.2891Z" fill="white"/>
<path d="M41.97 14.77H0V191.95H41.97V14.77Z" fill="white"/>
<path d="M455.251 15.5898C463.371 27.5298 472.331 38.9898 479.111 51.7698L478.491 15.5898H484.251V59.1698H478.281L461.941 35.6198L453.811 22.5798L454.221 59.1698H448.461V15.5898H455.251Z" fill="white"/>
<path d="M527.041 125.77V82.6001C539.151 81.3401 556.741 79.8001 563.581 92.3401C567.021 98.6401 566.861 107.73 563.731 114.12C557.171 127.51 539.731 126.85 527.041 125.76V125.77ZM533.211 121.65H543.701C551.741 121.65 558.811 113.99 559.531 106.23C561.151 88.7901 548.101 84.6301 533.211 86.7101V121.65Z" fill="white"/>
<path d="M548.021 151.05L548.701 150.5C559.711 149.46 574.551 147.98 582.591 157.21C588.451 163.94 588.591 175.92 584.141 183.45C577.061 195.44 560.141 194.9 548.021 193.6V151.05ZM554.191 155.16V188.87L555.221 189.49C568.381 191.02 580.621 186.7 580.961 171.63C581.301 156.34 567.651 152.57 554.881 154.61L554.201 155.16H554.191Z" fill="white"/>
<path d="M445.491 81.4899C476.221 78.4299 477.621 124.4 449.891 126.58C419.561 128.97 418.291 84.1999 445.491 81.4899ZM446.311 86.0099C427.001 88.0599 428.441 123.45 449.071 122.06C468.841 120.73 467.421 83.7599 446.311 86.0099Z" fill="white"/>
<path d="M611.38 107.27C611.57 105.8 610.83 103.83 612 102.75H627.02V124.13C614 127.88 595.38 128.1 589.68 113.14C584.25 98.9001 592.3 84.9701 607.19 82.3201C612.96 81.2901 620.5 81.2401 625.69 84.0301L623.94 88.3501C610.04 82.7401 592.9 88.9601 594.57 106.2C595.89 119.83 609.4 124.18 621.08 120.46C621.42 119.98 621.44 110 621.28 108.7C621.21 108.1 621.23 107.64 620.64 107.28H611.38V107.27Z" fill="white"/>
<path d="M508.531 150.02V178.59C508.531 180.76 510.451 185.41 512.011 187.03C516.471 191.64 525.731 190.75 529.181 185.25C529.791 184.27 531.161 180.82 531.161 179.83V150.03H537.331V180.25C537.331 181.26 535.571 185.8 534.941 186.91C527.541 199.82 502.361 196.02 502.361 179.43V150.04H508.531V150.02Z" fill="white"/>
<path d="M623.311 15.5898V45.3898C623.311 45.7398 624.601 49.4098 624.881 49.9898C628.041 56.4498 638.011 57.1298 642.651 51.9798C644.191 50.2798 645.931 45.9498 645.931 43.7498V15.5898H652.101V43.7498C652.101 61.3998 625.441 65.8398 618.831 51.5098C618.491 50.7698 617.131 46.7198 617.131 46.2198V15.5898H623.301H623.311Z" fill="white"/>
<path d="M679.68 125.77L696.33 82.1699L703.5 82.2499L719.59 125.78H713.21L708.11 112.46L690.82 112.26L686.25 125.79H679.67L679.68 125.77ZM692.43 107.68H706.42L699.22 87.5299L692.43 107.68Z" fill="white"/>
<path d="M637.711 150.02V154.95H618.381V168.52H636.891V173.45H618.381V189.07H638.951V194.01H612.211V150.02H637.711Z" fill="white"/>
<path d="M723.701 15.5898V20.1098H703.951V34.0898H722.471V38.6098H703.951V54.0298L704.571 54.6398H724.531V59.1698H697.781V15.5898H723.701Z" fill="white"/>
<path d="M671.45 151.26L669.55 155.76C664.57 153.69 653.77 152.35 651.89 159.05C649.81 166.49 661.06 168.46 665.64 170.83C671.33 173.77 674.76 178.4 672.98 185.05C670.08 195.92 653 196.04 644.74 191.91L645.95 187.02C650.8 189.1 656.23 190.79 661.5 189.2C665.8 187.91 667.98 184.1 666.65 179.68C664.49 172.49 646.46 173.88 645.53 162.14C644.5 149.15 662.5 147.08 671.45 151.26Z" fill="white"/>
<path d="M455.41 155.74C450.54 153.99 439.55 152.13 437.63 158.72C435.17 167.15 447.69 168.57 452.86 171.73C455.49 173.34 458.11 175.93 458.65 179.1C461.34 194.98 440.9 197.16 430.41 191.9L431.6 187.02C437.24 190.26 451.7 192.26 452.58 183.12C453.36 175.03 443.55 174.26 438.31 171.48C426.63 165.28 429.85 152.19 442.2 149.73C445.39 149.1 448.25 149.19 451.44 149.73C456.13 150.53 458.06 150.66 455.42 155.75L455.41 155.74Z" fill="white"/>
<path d="M517.981 21.35C512.461 18.38 498.931 17.8 499.871 26.91C500.471 32.67 510.691 34.31 514.971 36.91C517.501 38.45 520.671 41.2 521.181 44.27C523.651 58.98 506.621 62.1 495.861 58.47C491.921 57.14 492.381 56.04 494.381 52.62C499.501 54.67 506.041 56.51 511.271 53.9C514.581 52.26 515.861 48.82 514.831 45.26C512.671 37.82 494.901 39.26 493.711 28.13C492.271 14.66 510.181 12.2 519.461 16.81L517.981 21.35Z" fill="white"/>
<path d="M503.18 82.1899V86.7099H483.84V101.51H501.53V106.03H483.84V125.77H477.67V82.1899H503.18Z" fill="white"/>
<path d="M497.011 150.02V154.95H482.611V193.39C481.061 194.67 478.391 193.73 476.441 194.01V154.96H462.041V150.03H497.011V150.02Z" fill="white"/>
<path d="M692.431 15.5898V20.1098H678.031V59.1698H671.861V20.7298L671.251 20.1098H657.051V15.5898H692.431Z" fill="white"/>
<path d="M683.38 82.1899V86.7099H669.19L668.57 87.3299V125.77H662.4V86.7099H648V82.1899H683.38Z" fill="white"/>
<path d="M611.79 15.5898V20.1098H596.98V59.1698H590.81V20.1098H576.41V15.5898H611.79Z" fill="white"/>
<path d="M559.54 15.5898V20.1098H545.14V59.1698H538.97V20.1098H524.57V15.5898H559.54Z" fill="white"/>
<path d="M732.75 82.1899V121.24H752.91V125.77H726.58V82.1899H732.75Z" fill="white"/>
<path d="M601.51 150.02V193.39C599.96 194.67 597.29 193.73 595.34 194.01V150.02H601.51Z" fill="white"/>
<path d="M437.76 15.5898H431.59V59.1698H437.76V15.5898Z" fill="white"/>
<path d="M571.061 15.5898H564.891V59.1698H571.061V15.5898Z" fill="white"/>
<path d="M642.651 82.1899H636.48V125.77H642.651V82.1899Z" fill="white"/>
<path d="M580.111 82.1899H573.941V125.77H580.111V82.1899Z" fill="white"/>
<path d="M136.661 157.97C136.961 158.84 139.361 159.39 140.301 159.68C153.541 163.77 167.561 166.45 180.711 170.69C181.621 170.98 183.951 171.46 183.941 172.42C183.941 172.69 181.591 176.54 181.211 177.11C174.021 188.08 162.331 194.65 149.531 196.84C128.471 200.43 104.391 188.33 83.6206 184.26L82.3105 183.52" fill="#CACACA"/>
</svg>
