<svg width="841" height="331" viewBox="0 0 841 331" fill="none" xmlns="http://www.w3.org/2000/svg">
<path d="M412.64 122.06C408.99 120.97 405.59 119.28 401.94 118.15C388.57 114.04 355.72 109.16 349.61 126.29C342.9 145.12 378.17 152.84 390.41 158.03C410.4 166.52 427.38 179.31 428.68 202.83C430.23 230.96 409.91 249.27 384.34 255.53C359.41 261.64 329.48 258.78 306.06 248.45L313.9 216.6C323.42 220.84 333.48 224.33 343.84 225.94C356.96 227.97 383.28 229.21 387.02 212.18C391.38 192.36 361.37 186.47 348.05 181.03C323.38 170.94 303.1 153.57 309.14 124.09C317.95 81.1001 377.12 77.3701 411.2 87.5101C412.7 87.9601 420.97 90.5501 421.23 91.4901L412.63 122.05L412.64 122.06Z" fill="#EA2525"/>
<path d="M261.4 105.45C290.77 134.34 306.99 181.95 284.12 219.95C274.69 235.61 255.77 248.92 239.51 256.77C236.05 258.44 232.41 259.87 228.74 261.01C228.56 260.19 228.92 259.91 229.33 259.35C236.87 249.14 241.32 243.75 244.26 230.7C255.01 183.03 228.89 128.36 182.22 111.19L121.37 91.21L121.35 90.01C123.9 89.52 126.82 88.44 129.29 87.46C146.22 80.74 163.09 73.83 179.98 67C193.76 72.45 208.26 76.13 222.22 81.1C238.1 86.76 249.41 93.67 261.41 105.47L261.4 105.45Z" fill="#EA2525"/>
<path d="M126.29 107.46L180.41 123.27L180.66 224.97C180.96 225.84 183.36 226.39 184.3 226.68C197.54 230.77 211.56 233.45 224.71 237.69C225.62 237.98 227.95 238.46 227.94 239.42C227.94 239.69 225.59 243.54 225.21 244.11C218.02 255.08 206.33 261.65 193.53 263.84C172.47 267.43 148.39 255.33 127.62 251.26L126.31 250.52V107.46H126.29Z" fill="#9D9D9D"/>
<path d="M85.97 81.77H44V258.95H85.97V81.77Z" fill="#EA2525"/>
<path d="M499.25 82.5901C507.37 94.5301 516.33 105.99 523.11 118.77L522.49 82.5901H528.25V126.17H522.28L505.94 102.62L497.81 89.5801L498.22 126.17H492.46V82.5901H499.25Z" fill="black"/>
<path d="M571.04 192.77V149.6C583.15 148.34 600.74 146.8 607.58 159.34C611.02 165.64 610.86 174.73 607.73 181.12C601.17 194.51 583.73 193.85 571.04 192.76V192.77ZM577.21 188.65H587.7C595.74 188.65 602.81 180.99 603.53 173.23C605.15 155.79 592.1 151.63 577.21 153.71V188.65Z" fill="black"/>
<path d="M592.02 218.05L592.7 217.5C603.71 216.46 618.55 214.98 626.59 224.21C632.45 230.94 632.59 242.92 628.14 250.45C621.06 262.44 604.14 261.9 592.02 260.6V218.05ZM598.19 222.16V255.87L599.219 256.49C612.379 258.02 624.62 253.7 624.96 238.63C625.3 223.34 611.65 219.57 598.88 221.61L598.2 222.16H598.19Z" fill="black"/>
<path d="M489.49 148.49C520.22 145.43 521.62 191.4 493.89 193.58C463.56 195.97 462.29 151.2 489.49 148.49ZM490.31 153.01C471 155.06 472.44 190.45 493.07 189.06C512.84 187.73 511.42 150.76 490.31 153.01Z" fill="black"/>
<path d="M655.38 174.27C655.57 172.8 654.83 170.83 656 169.75H671.02V191.13C658 194.88 639.38 195.1 633.68 180.14C628.25 165.9 636.3 151.97 651.19 149.32C656.96 148.29 664.5 148.24 669.69 151.03L667.94 155.35C654.04 149.74 636.9 155.96 638.57 173.2C639.89 186.83 653.4 191.18 665.08 187.46C665.42 186.98 665.44 177 665.28 175.7C665.21 175.1 665.23 174.64 664.64 174.28H655.38V174.27Z" fill="black"/>
<path d="M552.529 217.02V245.59C552.529 247.76 554.449 252.41 556.009 254.03C560.469 258.64 569.729 257.75 573.179 252.25C573.789 251.27 575.159 247.82 575.159 246.83V217.03H581.329V247.25C581.329 248.26 579.569 252.8 578.939 253.91C571.539 266.82 546.359 263.02 546.359 246.43V217.04H552.529V217.02Z" fill="black"/>
<path d="M667.31 82.5901V112.39C667.31 112.74 668.6 116.41 668.88 116.99C672.04 123.45 682.01 124.13 686.65 118.98C688.19 117.28 689.93 112.95 689.93 110.75V82.5901H696.1V110.75C696.1 128.4 669.44 132.84 662.83 118.51C662.49 117.77 661.13 113.72 661.13 113.22V82.5901H667.3H667.31Z" fill="black"/>
<path d="M723.68 192.77L740.33 149.17L747.5 149.25L763.59 192.78H757.21L752.11 179.46L734.82 179.26L730.25 192.79H723.67L723.68 192.77ZM736.43 174.68H750.42L743.22 154.53L736.43 174.68Z" fill="black"/>
<path d="M681.71 217.02V221.95H662.38V235.52H680.89V240.45H662.38V256.07H682.95V261.01H656.21V217.02H681.71Z" fill="black"/>
<path d="M767.699 82.5901V87.1101H747.949V101.09H766.469V105.61H747.949V121.03L748.569 121.64H768.529V126.17H741.779V82.5901H767.699Z" fill="black"/>
<path d="M715.449 218.26L713.549 222.76C708.569 220.69 697.769 219.35 695.889 226.05C693.809 233.49 705.059 235.46 709.639 237.83C715.329 240.77 718.759 245.4 716.979 252.05C714.079 262.92 696.999 263.04 688.739 258.91L689.949 254.02C694.799 256.1 700.229 257.79 705.499 256.2C709.799 254.91 711.979 251.1 710.649 246.68C708.489 239.49 690.459 240.88 689.529 229.14C688.499 216.15 706.499 214.08 715.449 218.26Z" fill="black"/>
<path d="M499.409 222.74C494.539 220.99 483.549 219.13 481.629 225.72C479.169 234.15 491.689 235.57 496.859 238.73C499.489 240.34 502.109 242.93 502.649 246.1C505.339 261.98 484.899 264.16 474.409 258.9L475.599 254.02C481.239 257.26 495.699 259.26 496.579 250.12C497.359 242.03 487.549 241.26 482.309 238.48C470.629 232.28 473.849 219.19 486.199 216.73C489.389 216.1 492.249 216.19 495.439 216.73C500.129 217.53 502.059 217.66 499.419 222.75L499.409 222.74Z" fill="black"/>
<path d="M561.979 88.35C556.459 85.38 542.929 84.8 543.869 93.91C544.469 99.67 554.689 101.31 558.969 103.91C561.499 105.45 564.669 108.2 565.179 111.27C567.649 125.98 550.619 129.1 539.859 125.47C535.919 124.14 536.379 123.04 538.379 119.62C543.499 121.67 550.039 123.51 555.269 120.9C558.579 119.26 559.859 115.82 558.829 112.26C556.669 104.82 538.899 106.26 537.709 95.13C536.269 81.66 554.179 79.2 563.459 83.81L561.979 88.35Z" fill="black"/>
<path d="M547.18 149.19V153.71H527.84V168.51H545.53V173.03H527.84V192.77H521.67V149.19H547.18Z" fill="black"/>
<path d="M541.01 217.02V221.95H526.61V260.39C525.06 261.67 522.39 260.73 520.44 261.01V221.96H506.04V217.03H541.01V217.02Z" fill="black"/>
<path d="M736.43 82.5901V87.1101H722.03V126.17H715.86V87.7301L715.25 87.1101H701.05V82.5901H736.43Z" fill="black"/>
<path d="M727.38 149.19V153.71H713.19L712.57 154.33V192.77H706.4V153.71H692V149.19H727.38Z" fill="black"/>
<path d="M655.789 82.5901V87.1101H640.979V126.17H634.809V87.1101H620.409V82.5901H655.789Z" fill="black"/>
<path d="M603.539 82.5901V87.1101H589.139V126.17H582.969V87.1101H568.569V82.5901H603.539Z" fill="black"/>
<path d="M776.75 149.19V188.24H796.91V192.77H770.58V149.19H776.75Z" fill="black"/>
<path d="M645.51 217.02V260.39C643.96 261.67 641.29 260.73 639.34 261.01V217.02H645.51Z" fill="black"/>
<path d="M481.76 82.5901H475.59V126.17H481.76V82.5901Z" fill="black"/>
<path d="M615.06 82.5901H608.89V126.17H615.06V82.5901Z" fill="black"/>
<path d="M686.65 149.19H680.479V192.77H686.65V149.19Z" fill="black"/>
<path d="M624.109 149.19H617.939V192.77H624.109V149.19Z" fill="black"/>
<path d="M180.66 224.97C180.96 225.84 183.36 226.39 184.3 226.68C197.54 230.77 211.56 233.45 224.71 237.69C225.62 237.98 227.95 238.46 227.94 239.42C227.94 239.69 225.59 243.54 225.21 244.11C218.02 255.08 206.33 261.65 193.53 263.84C172.47 267.43 148.39 255.33 127.62 251.26L126.31 250.52" fill="#CACACA"/>
</svg>
