<svg width="753" height="198" viewBox="0 0 753 198" fill="none" xmlns="http://www.w3.org/2000/svg">
<path d="M368.641 55.0599C364.991 53.9699 361.591 52.2799 357.941 51.1499C344.571 47.0399 311.721 42.1599 305.611 59.2899C298.901 78.1199 334.171 85.8399 346.411 91.0299C366.401 99.5199 383.381 112.31 384.681 135.83C386.231 163.96 365.911 182.27 340.341 188.53C315.411 194.64 285.481 191.78 262.061 181.45L269.901 149.6C279.421 153.84 289.481 157.33 299.841 158.94C312.961 160.97 339.281 162.21 343.021 145.18C347.381 125.36 317.371 119.47 304.051 114.03C279.381 103.94 259.101 86.5699 265.141 57.0899C273.951 14.0999 333.121 10.3699 367.201 20.5099C368.701 20.9599 376.971 23.5499 377.231 24.4899L368.631 55.0499L368.641 55.0599Z" fill="#EA2525"/>
<path d="M217.4 38.45C246.77 67.34 262.99 114.95 240.12 152.95C230.69 168.61 211.77 181.92 195.51 189.77C192.05 191.44 188.41 192.87 184.74 194.01C184.56 193.19 184.92 192.91 185.33 192.35C192.87 182.14 197.32 176.75 200.26 163.7C211.01 116.03 184.89 61.36 138.22 44.19L77.3696 24.21L77.3496 23.01C79.8996 22.52 82.8196 21.44 85.2896 20.46C102.22 13.74 119.09 6.83 135.98 0C149.76 5.45 164.26 9.13 178.22 14.1C194.1 19.76 205.41 26.67 217.41 38.47L217.4 38.45Z" fill="#EA2525"/>
<path d="M82.2891 40.46L136.409 56.27L136.659 157.97C136.959 158.84 139.359 159.39 140.299 159.68C153.539 163.77 167.559 166.45 180.709 170.69C181.619 170.98 183.949 171.46 183.939 172.42C183.939 172.69 181.589 176.54 181.209 177.11C174.019 188.08 162.329 194.65 149.529 196.84C128.469 200.43 104.389 188.33 83.6191 184.26L82.3091 183.52V40.46H82.2891Z" fill="#040404"/>
<path d="M41.97 14.7695H0V191.95H41.97V14.7695Z" fill="#EA2525"/>
<path d="M455.25 15.5898C463.37 27.5298 472.33 38.9898 479.11 51.7698L478.49 15.5898H484.25V59.1698H478.28L461.94 35.6198L453.81 22.5798L454.22 59.1698H448.46V15.5898H455.25Z" fill="black"/>
<path d="M527.04 125.77V82.5997C539.15 81.3397 556.74 79.7997 563.58 92.3397C567.02 98.6397 566.86 107.73 563.73 114.12C557.17 127.51 539.73 126.85 527.04 125.76V125.77ZM533.21 121.65H543.7C551.74 121.65 558.81 113.99 559.53 106.23C561.15 88.7896 548.1 84.6297 533.21 86.7097V121.65Z" fill="black"/>
<path d="M548.02 151.049L548.7 150.499C559.71 149.459 574.55 147.979 582.59 157.209C588.45 163.939 588.59 175.919 584.14 183.449C577.06 195.439 560.14 194.899 548.02 193.599V151.049ZM554.19 155.159V188.869L555.219 189.489C568.379 191.019 580.62 186.699 580.96 171.629C581.3 156.339 567.65 152.569 554.88 154.609L554.2 155.159H554.19Z" fill="black"/>
<path d="M445.49 81.4899C476.22 78.4299 477.62 124.4 449.89 126.58C419.56 128.97 418.29 84.1999 445.49 81.4899ZM446.31 86.0099C427 88.0599 428.44 123.45 449.07 122.06C468.84 120.73 467.42 83.7599 446.31 86.0099Z" fill="black"/>
<path d="M611.38 107.27C611.57 105.8 610.83 103.83 612 102.75H627.02V124.13C614 127.88 595.38 128.1 589.68 113.14C584.25 98.8996 592.3 84.9696 607.19 82.3196C612.96 81.2896 620.5 81.2396 625.69 84.0296L623.94 88.3496C610.04 82.7396 592.9 88.9596 594.57 106.2C595.89 119.83 609.4 124.18 621.08 120.46C621.42 119.98 621.44 110 621.28 108.7C621.21 108.1 621.23 107.64 620.64 107.28H611.38V107.27Z" fill="black"/>
<path d="M508.529 150.02V178.59C508.529 180.76 510.449 185.41 512.009 187.03C516.469 191.64 525.729 190.75 529.179 185.25C529.789 184.27 531.159 180.82 531.159 179.83V150.03H537.329V180.25C537.329 181.26 535.569 185.8 534.939 186.91C527.539 199.82 502.359 196.02 502.359 179.43V150.04H508.529V150.02Z" fill="black"/>
<path d="M623.31 15.5898V45.3898C623.31 45.7398 624.6 49.4098 624.88 49.9898C628.04 56.4498 638.01 57.1298 642.65 51.9798C644.19 50.2798 645.93 45.9498 645.93 43.7498V15.5898H652.1V43.7498C652.1 61.3998 625.44 65.8398 618.83 51.5098C618.49 50.7698 617.13 46.7198 617.13 46.2198V15.5898H623.3H623.31Z" fill="black"/>
<path d="M679.68 125.77L696.33 82.1699L703.5 82.2499L719.59 125.78H713.21L708.11 112.46L690.82 112.26L686.25 125.79H679.67L679.68 125.77ZM692.43 107.68H706.42L699.22 87.5299L692.43 107.68Z" fill="black"/>
<path d="M637.71 150.02V154.95H618.38V168.52H636.89V173.45H618.38V189.07H638.95V194.01H612.21V150.02H637.71Z" fill="black"/>
<path d="M723.699 15.5898V20.1098H703.949V34.0898H722.469V38.6098H703.949V54.0298L704.569 54.6398H724.529V59.1698H697.779V15.5898H723.699Z" fill="black"/>
<path d="M671.449 151.26L669.549 155.76C664.569 153.69 653.769 152.35 651.889 159.05C649.809 166.49 661.059 168.46 665.639 170.83C671.329 173.77 674.759 178.4 672.979 185.05C670.079 195.92 652.999 196.04 644.739 191.91L645.949 187.02C650.799 189.1 656.229 190.79 661.499 189.2C665.799 187.91 667.979 184.1 666.649 179.68C664.489 172.49 646.459 173.88 645.529 162.14C644.499 149.15 662.499 147.08 671.449 151.26Z" fill="black"/>
<path d="M455.409 155.739C450.539 153.989 439.549 152.129 437.629 158.719C435.169 167.149 447.689 168.569 452.859 171.729C455.489 173.339 458.109 175.929 458.649 179.099C461.339 194.979 440.899 197.159 430.409 191.899L431.599 187.019C437.239 190.259 451.699 192.259 452.579 183.119C453.359 175.029 443.549 174.259 438.309 171.479C426.629 165.279 429.849 152.189 442.199 149.729C445.389 149.099 448.249 149.189 451.439 149.729C456.129 150.529 458.059 150.659 455.419 155.749L455.409 155.739Z" fill="black"/>
<path d="M517.979 21.3495C512.459 18.3795 498.929 17.7995 499.869 26.9095C500.469 32.6695 510.689 34.3095 514.969 36.9095C517.499 38.4495 520.669 41.1995 521.179 44.2695C523.649 58.9795 506.619 62.0995 495.859 58.4695C491.919 57.1395 492.379 56.0395 494.379 52.6195C499.499 54.6695 506.039 56.5095 511.269 53.8995C514.579 52.2595 515.859 48.8195 514.829 45.2595C512.669 37.8195 494.899 39.2595 493.709 28.1295C492.269 14.6595 510.179 12.1995 519.459 16.8095L517.979 21.3495Z" fill="black"/>
<path d="M503.18 82.1895V86.7095H483.84V101.509H501.53V106.029H483.84V125.769H477.67V82.1895H503.18Z" fill="black"/>
<path d="M497.01 150.02V154.95H482.61V193.39C481.06 194.67 478.39 193.73 476.44 194.01V154.96H462.04V150.03H497.01V150.02Z" fill="black"/>
<path d="M692.43 15.5898V20.1098H678.03V59.1698H671.86V20.7298L671.25 20.1098H657.05V15.5898H692.43Z" fill="black"/>
<path d="M683.38 82.1895V86.7095H669.19L668.57 87.3295V125.769H662.4V86.7095H648V82.1895H683.38Z" fill="black"/>
<path d="M611.789 15.5898V20.1098H596.979V59.1698H590.809V20.1098H576.409V15.5898H611.789Z" fill="black"/>
<path d="M559.539 15.5898V20.1098H545.139V59.1698H538.969V20.1098H524.569V15.5898H559.539Z" fill="black"/>
<path d="M732.75 82.1895V121.239H752.91V125.769H726.58V82.1895H732.75Z" fill="black"/>
<path d="M601.51 150.02V193.39C599.96 194.67 597.29 193.73 595.34 194.01V150.02H601.51Z" fill="black"/>
<path d="M437.76 15.5898H431.59V59.1698H437.76V15.5898Z" fill="black"/>
<path d="M571.06 15.5898H564.89V59.1698H571.06V15.5898Z" fill="black"/>
<path d="M642.65 82.1895H636.479V125.769H642.65V82.1895Z" fill="black"/>
<path d="M580.109 82.1895H573.939V125.769H580.109V82.1895Z" fill="black"/>
<path d="M136.661 157.97C136.961 158.84 139.361 159.39 140.301 159.68C153.541 163.77 167.561 166.45 180.711 170.69C181.621 170.98 183.951 171.46 183.941 172.42C183.941 172.69 181.591 176.54 181.211 177.11C174.021 188.08 162.331 194.65 149.531 196.84C128.471 200.43 104.391 188.33 83.6206 184.26L82.3105 183.52" fill="#3B3B3B"/>
</svg>
