<svg width="385" height="198" viewBox="0 0 385 198" fill="none" xmlns="http://www.w3.org/2000/svg">
<path d="M368.64 55.0599C364.99 53.9699 361.59 52.2799 357.94 51.1499C344.57 47.0399 311.72 42.1599 305.61 59.2899C298.9 78.1199 334.17 85.8399 346.41 91.0299C366.4 99.5199 383.38 112.31 384.68 135.83C386.23 163.96 365.91 182.27 340.34 188.53C315.41 194.64 285.48 191.78 262.06 181.45L269.9 149.6C279.42 153.84 289.48 157.33 299.84 158.94C312.96 160.97 339.28 162.21 343.02 145.18C347.38 125.36 317.37 119.47 304.05 114.03C279.38 103.94 259.1 86.5699 265.14 57.0899C273.95 14.0999 333.12 10.3699 367.2 20.5099C368.7 20.9599 376.97 23.5499 377.23 24.4899L368.63 55.0499L368.64 55.0599Z" fill="#EA2525"/>
<path d="M217.4 38.45C246.77 67.34 262.99 114.95 240.12 152.95C230.69 168.61 211.77 181.92 195.51 189.77C192.05 191.44 188.41 192.87 184.74 194.01C184.56 193.19 184.92 192.91 185.33 192.35C192.87 182.14 197.32 176.75 200.26 163.7C211.01 116.03 184.89 61.36 138.22 44.19L77.3696 24.21L77.3496 23.01C79.8996 22.52 82.8196 21.44 85.2896 20.46C102.22 13.74 119.09 6.83 135.98 0C149.76 5.45 164.26 9.13 178.22 14.1C194.1 19.76 205.41 26.67 217.41 38.47L217.4 38.45Z" fill="#EA2525"/>
<path d="M82.29 40.46L136.41 56.27L136.66 157.97C136.96 158.84 139.36 159.39 140.3 159.68C153.54 163.77 167.56 166.45 180.71 170.69C181.62 170.98 183.95 171.46 183.94 172.42C183.94 172.69 181.59 176.54 181.21 177.11C174.02 188.08 162.33 194.65 149.53 196.84C128.47 200.43 104.39 188.33 83.62 184.26L82.31 183.52V40.46H82.29Z" fill="#040404"/>
<path d="M41.97 14.77H0V191.95H41.97V14.77Z" fill="#EA2525"/>
<path d="M136.66 157.97C136.96 158.84 139.36 159.39 140.3 159.68C153.54 163.77 167.56 166.45 180.71 170.69C181.62 170.98 183.95 171.46 183.94 172.42C183.94 172.69 181.59 176.54 181.21 177.11C174.02 188.08 162.33 194.65 149.53 196.84C128.47 200.43 104.39 188.33 83.6196 184.26L82.3096 183.52" fill="#3B3B3B"/>
</svg>
