<?xml version="1.0" encoding="UTF-8"?>
<svg id="Layer_1" data-name="Layer 1" xmlns="http://www.w3.org/2000/svg" viewBox="0 0 127.9056 127.9056">
  <defs>
    <style>
      .cls-1 {
        fill: #1d1e1c;
      }

      .cls-1, .cls-2, .cls-3, .cls-4, .cls-5, .cls-6, .cls-7 {
        fill-rule: evenodd;
      }

      .cls-2 {
        fill: #fff;
      }

      .cls-8, .cls-7 {
        fill: #ea7826;
      }

      .cls-3 {
        fill: #333675;
      }

      .cls-4 {
        fill: #3ba448;
      }

      .cls-5 {
        fill: #e45825;
      }

      .cls-6 {
        fill: #1a538f;
      }
    </style>
  </defs>
  <path class="cls-3" d="M2.9147,88.2409l2.2086-3.1255c1.5613,1.6413,3.7281,2.5693,5.9934,2.5667,2.2253,0,3.2728-1.0039,3.2728-2.0881,0-3.2861-10.8523-.9872-10.8523-8.0949,0-3.1222,2.7139-5.7324,7.1579-5.7324,2.985,0,5.478.8901,7.3353,2.6135l-2.2287,3.0117c-1.5091-1.3342-3.4605-2.0594-5.4747-2.0346-1.6966,0-2.6403.7228-2.6403,1.8706,0,2.9515,10.8088.9571,10.8088,7.9811,0,3.4702-2.483,6.0536-7.5428,6.0536-3.6476,0-6.241-1.2248-8.0313-3.0117l-.0067-.01Z"/>
  <polygon class="cls-3" points="29.9301 90.8946 26.316 85.6508 24.683 87.3976 24.683 90.8946 21.0856 90.8946 21.0856 72.0578 24.683 72.0578 24.683 83.3284 29.8464 77.2647 34.2436 77.2647 28.8526 83.4422 34.4143 90.8946 29.9301 90.8946 29.9301 90.8946"/>
  <polygon class="cls-3" points="65.0303 72.0578 69.0393 72.0578 69.0393 90.8946 65.0303 90.8946 65.0303 72.0578 65.0303 72.0578"/>
  <path class="cls-3" d="M81.8895,90.8979v-8.2388c0-1.8773-1.0039-2.5667-2.4998-2.5667-1.226.0354-2.3706.6218-3.1155,1.5962v9.2093h-3.5974v-13.6332h3.594v1.7468c1.2226-1.3491,2.9648-2.1093,4.7853-2.0881,3.0117,0,4.4574,1.6933,4.4574,4.3503v9.6376l-3.6241-.0134Z"/>
  <path class="cls-3" d="M98.4273,90.8979v-1.7535c-.9905,1.3296-2.5552,2.1076-4.2131,2.0948-3.4133,0-6.057-2.5834-6.057-7.1646,0-4.4507,2.5868-7.1579,6.057-7.1579,1.66-.0221,3.2288.7579,4.2131,2.0948v-6.9538h3.5974v18.8402h-3.5974ZM98.4273,86.5075v-4.8389c-.7319-.966-1.8638-1.5461-3.0753-1.5762-2.0681,0-3.4736,1.6431-3.4736,3.9822s1.4055,3.9889,3.4736,3.9889c1.2095-.0198,2.343-.5934,3.0753-1.5561h0Z"/>
  <path class="cls-3" d="M105.2606,73.6339c.0037-1.1828.9656-2.1387,2.1484-2.1349,1.1828.0037,2.1387.9656,2.1349,2.1484-.0037,1.1828-.9656,2.1387-2.1484,2.1349-.0022,0-.0044,0-.0066,0-1.181-.0055-2.1338-.9674-2.1283-2.1483h0ZM105.5953,77.2647h3.6007v13.6332h-3.5907v-13.6332h-.01Z"/>
  <path class="cls-3" d="M120.9418,90.8979v-1.4323c-.9336,1.1344-2.5499,1.7736-4.3202,1.7736-2.1651,0-4.7184-1.4657-4.7184-4.5176,0-3.2259,2.5533-4.4072,4.7184-4.4072,1.8405,0,3.4267.589,4.3202,1.6933v-1.7234c0-1.3954-1.198-2.309-2.985-2.309-1.4652.013-2.8698.5866-3.9253,1.6029l-1.4088-2.4998c1.6445-1.4356,3.7676-2.2022,5.9499-2.1484,3.1255,0,5.99,1.2449,5.99,5.1769v8.8177l-3.6208-.0268ZM120.9418,87.6218v-1.6966c-.5823-.7864-1.7167-1.198-2.8745-1.198-1.4122,0-2.5734.7563-2.5734,2.0614s1.1612,2.0346,2.5734,2.0346c1.1578,0,2.2923-.3915,2.8745-1.1813v-.0201Z"/>
  <polygon class="cls-8" points="38.0217 73.9886 35.368 77.5793 36.2246 77.5793 36.2246 90.8946 39.8086 90.8946 39.8086 77.5793 40.6787 77.5793 38.0217 73.9886 38.0217 73.9886"/>
  <polygon class="cls-4" points="45.1729 69.0092 42.5259 72.64 43.3759 72.64 43.3759 90.8946 46.9766 90.8946 46.9766 72.64 47.8299 72.64 45.1729 69.0092 45.1729 69.0092"/>
  <polygon class="cls-3" points="52.3174 69.0092 49.6704 72.64 50.5271 72.64 50.5271 90.8946 54.1178 90.8946 54.1178 72.64 54.9811 72.64 52.3174 69.0092 52.3174 69.0092"/>
  <path class="cls-1" d="M10.2567,104.4742c-.5827-.0019-1.0571.4681-1.0608,1.0508-.0017.0178-.0017.0357,0,.0535v3.4669h-1.7167v-1.6966h-.0535c-.3847.3086-.8656.472-1.3586.4618-1.2537.0262-2.2916-.9683-2.319-2.222-.0033-.0557-.0033-.1116,0-.1673,0-1.7167,1.3954-2.5566,2.8377-2.4061l.2911,1.4925c-.8165-.1941-1.4289.2108-1.4289.9504-.0018.5101.4102.9251.9203.9269.0011,0,.0022,0,.0033,0h.0669c.5735-.011,1.03-.4839,1.0206-1.0575v-3.1958H3.0452v-1.3386h10.5579v1.3386h-4.4072v1.4189h.0468c.3772-.3319.8665-.5077,1.3687-.4919,1.2453-.0299,2.2791.9554,2.309,2.2007,0,.0004,0,.0008,0,.0013v.174c0,1.7167-1.3854,2.5533-2.8344,2.4395l-.2778-1.4925c.8232.174,1.4055-.2543,1.4055-.9838.0227-.4813-.3486-.8901-.8299-.9136h-.1071l-.0201-.01Z"/>
  <path class="cls-1" d="M15.8016,102.1317v6.9136h-1.7669v-6.9136h-1.285v-1.3386h.5856v-.0803c-1.3649-.6241-2.6105-1.4813-3.681-2.5332l1.4858-.9303,3.3865,3.5472h.1004l-2.0915-3.2326,1.8639-.3882,1.3386,3.6409h1.3386v1.3386l-1.275-.0234Z"/>
  <path class="cls-1" d="M18.7799,104.3738c-.7833-.1781-1.3245-.8945-1.2817-1.6966,0-1.0809.9705-2.0078,2.309-2.0078,1.8372,0,2.6771,1.2214,2.6771,2.4998,0,2.0078-1.5895,2.9348-3.0117,2.985v.0469c.5822.3147,1.12.7052,1.5996,1.1612l1.1512,1.0039-1.4356,1.0039-3.0117-2.7842-1.0541-.773.9805-1.2884c.3908.1937.8222.2912,1.2582.2844,1.0742,0,1.7903-.6057,1.7903-1.6364,0-.7496-.3781-1.1344-.8299-1.1344-.3275-.0395-.6258.1917-.6693.5187-.0018.0223-.0018.0447,0,.0669.0015.3479.2383.6508.5756.7362l-1.0039,1.0039-.0435.01ZM23.4649,100.7999h3.0419v1.3386h-1.2984v6.9136h-1.7535l.01-8.2522Z"/>
  <path class="cls-1" d="M32.4165,103.4201v-1.2884h-6.7831v-1.3386h9.835v1.3386h-1.285v6.9136h-1.7669v-4.2399c-.1803-.1159-.3882-.1817-.6024-.1907-.4919,0-.7061.3346-.7061,1.0039v1.1545h-1.5761v-1.2515c0-.5522-.2677-.8701-.6693-.8701-.3346,0-.7362.2142-.7362,1.0809,0,.7563.4049,1.7167,1.7702,2.4429l-1.0976,1.1277c-1.4388-.6567-2.374-2.0797-2.4061-3.6609,0-1.6732,1.1612-2.4429,2.2755-2.4429.7663,0,1.3386.3112,1.5761.9102h.0468c.1182-.5678.6214-.9729,1.2014-.9671.3269-.0231.6502.0799.9035.2878l.0201-.01Z"/>
  <path class="cls-1" d="M42.4021,100.7999h4.0157v1.3386h-1.2951v6.9136h-1.6966v-3.3966h-2.0748v1.3553h-1.5929c-.6316-.5155-.9998-1.2863-1.0039-2.1015l.9437-.7094v-1.3988c0-.4886-.2242-.6525-.6492-.6525h-.8433v-1.3386h1.1779c.8366,0,2.0078.3112,2.0078,1.8807v1.4724h2.0078v-2.0346h-1.0039v-1.3386l.0067.01Z"/>
  <polygon class="cls-1" points="48.623 102.1317 48.623 109.0554 46.8829 109.0554 46.8829 102.1317 45.5611 102.1317 45.5611 100.8066 49.8946 100.8066 49.8946 102.1317 48.623 102.1317 48.623 102.1317"/>
  <path class="cls-1" d="M52.3007,105.9199c.3559.3435.6911.7078,1.0039,1.0909l1.1311,1.3553-1.4289.8935-3.5505-4.4105,1.3051-1.0039c.3714.5488.6425.7529,1.0039.7529.2811,0,.502-.1539.502-.6023v-1.8639h-3.2427v-1.3118h6.1942v1.3386h-1.2315v1.8941c0,1.208-.7161,1.6966-1.5762,1.8104-.0335,0-.0703.0201-.1171.0201v.0636l.0067-.0268Z"/>
  <path class="cls-1" d="M57.2031,109.2227c-1.187-.7776-1.9202-2.0853-1.9643-3.5037,0-1.797,1.3386-2.4629,2.5533-2.4629h1.5427v-1.1244h-4.9895v-1.3386h8.0313v1.3386h-1.3118v6.9136h-1.7301v-4.3235h-1.2348c-.5388-.054-1.0194.3391-1.0733.8779-.0003.003-.0006.0059-.0009.0089-.005.0545-.005.1094,0,.164,0,.9403.5455,1.7602,1.4222,2.3425l-1.2415,1.0943-.0033.0134Z"/>
  <path class="cls-1" d="M76.3344,104.4742c-.5766-.0074-1.05.4539-1.0575,1.0305h0c-.0017.0247-.0017.0493,0,.0738v3.4669h-1.7334v-1.6966h-.0468c-.3849.3081-.8657.4715-1.3586.4618-1.2562.0373-2.3048-.9507-2.3422-2.2069-.0001-.0039-.0002-.0078-.0003-.0117v-.1707c0-1.7167,1.3887-2.5566,2.8545-2.4061l.2677,1.4925c-.7998-.1941-1.4155.2108-1.4155.9504-.0056.5051.3984.9196.9035.9269h.0669c.5692.0056,1.0351-.4514,1.0407-1.0206,0-.0011,0-.0023,0-.0034v-3.2293h-3.8785v-1.3386h10.0559v1.3386h-4.4072v1.4189h.0335c.3742-.3163.8486-.4894,1.3386-.4886,1.2454-.0243,2.2747.9657,2.299,2.2111,0,.0003,0,.0006,0,.0008v.164c0,1.7167-1.3754,2.5533-2.8344,2.4395l-.2543-1.4925c.8065.174,1.3854-.2543,1.3854-.9838.0208-.4831-.3535-.8919-.8366-.9136h-.0904l.01-.0134Z"/>
  <path class="cls-1" d="M81.3942,104.3738c-.7809-.1798-1.3182-.8967-1.2716-1.6966,0-1.0809.9838-2.0078,2.2923-2.0078,1.8439,0,2.6537,1.2214,2.6537,2.4998,0,2.0078-1.5661,2.9348-3.0117,2.985v.0469c.5883.3164,1.1337.7066,1.623,1.1612l1.1344,1.0039-1.4323,1.0039-3.0117-2.7842-1.0374-.773.9671-1.2884c.3957.1934.8313.2908,1.2716.2844,1.0508,0,1.7669-.6057,1.7669-1.6364,0-.7496-.3614-1.1344-.8199-1.1344-.3257-.0416-.6242.1867-.6693.512v.0736c.0139.3468.2509.6446.5856.7362l-1.0039,1.0039-.0368.01ZM86.0791,100.7999h3.0118v1.3386h-1.275v6.9136h-1.7468l.01-8.2522Z"/>
  <path class="cls-1" d="M95.0274,103.4201v-1.2884h-6.7798v-1.3386h9.8317v1.3386h-1.3017v6.9136h-1.7468v-4.2399c-.171-.1146-.37-.1806-.5756-.1907-.5086,0-.7295.3346-.7295,1.0039v1.1545h-1.5929v-1.2515c0-.5522-.2777-.8701-.6693-.8701-.3346,0-.7462.2142-.7462,1.0809,0,.7563.4083,1.7167,1.7769,2.4429l-1.1143,1.1277c-1.4203-.6726-2.3388-2.0898-2.3726-3.6609,0-1.6732,1.1578-2.4429,2.2956-2.4429.7429,0,1.3118.3112,1.5594.9102h.0469c.11-.5672.6102-.9744,1.188-.9671.3283-.0265.6539.0769.9069.2878l.0234-.01Z"/>
  <path class="cls-1" d="M105.0264,100.7999h4.0157v1.3386h-1.2917v6.9136h-1.7267v-3.3966h-2.048v1.3553h-1.5962c-.626-.5179-.987-1.2891-.9838-2.1015l.937-.7094v-1.3988c0-.4886-.2276-.6525-.6693-.6525h-1.1244v-1.3386h1.4691c.8466,0,2.0346.3112,2.0346,1.8807v1.4724h2.0078v-2.0346h-1.0039v-1.3386l-.0201.01Z"/>
  <polygon class="cls-1" points="111.2272 102.1317 111.2272 109.0554 109.4771 109.0554 109.4771 102.1317 108.1921 102.1317 108.1921 100.8066 112.5156 100.8066 112.5156 102.1317 111.2272 102.1317 111.2272 102.1317"/>
  <path class="cls-1" d="M114.9216,105.9199c.251.2476.4986.512,1.0039,1.0909l1.121,1.3553-1.4055.8935-3.5606-4.4105,1.3051-1.0039c.3748.5488.6291.7529.9872.7529.2945,0,.5053-.1539.5053-.6023v-1.8639h-3.2393v-1.3118h6.1841v1.3386h-1.2047v1.8941c0,1.208-.7228,1.6966-1.5795,1.8104l-.1171.0201v.0368Z"/>
  <path class="cls-1" d="M119.8141,109.2227c-1.1747-.7864-1.8985-2.0907-1.9443-3.5037,0-1.797,1.3586-2.4629,2.5533-2.4629h1.5159v-1.1244h-4.9794v-1.3386h8.0313v1.3386h-1.3151v6.9136h-1.7368v-4.3235h-1.2315c-.5406-.0543-1.0229.3399-1.0773.8806-.0001.001-.0002.0019-.0003.0029-.005.0557-.005.1117,0,.1673,0,.9403.5555,1.7602,1.4122,2.3425l-1.2281,1.0943v.0134Z"/>
  <path class="cls-1" d="M75.1063,114.1486c-1.6421-.043-3.1748-.8328-4.1629-2.145l1.208-1.1177c.7964,1.1445,1.6966,1.9108,2.9214,1.9108.5588,0,1.0909-.2376,1.0909-.8399.0132-.3454-.2561-.636-.6015-.6492-.0003,0-.0006,0-.0009,0h-.0569c-.3615-.0062-.6946.1955-.8567.5187l-1.1244-.9805c.5057-.6389,1.2957-.985,2.1082-.9236,1.2616,0,2.2354.7395,2.2354,2.0078,0,1.0976-.7964,2.2153-2.7608,2.2153v.0033Z"/>
  <polygon class="cls-1" points="67.4364 106.0035 64.0097 106.0035 64.0097 104.2701 67.4364 104.2701 67.4364 106.0035 67.4364 106.0035"/>
  <path class="cls-2" d="M82.2241,14.7342h-36.5225c-.7269.0018-1.3151.5916-1.3151,1.3185v30.9374c0,.7263.5888,1.3151,1.3151,1.3151h36.5225c.725-.0018,1.3118-.5901,1.3118-1.3151v-30.9374c0-.7256-.5862-1.3148-1.3118-1.3185ZM57.0726,36.2113c-1.3988,0-1.3988-2.1618,0-2.1618s1.3921,2.1618,0,2.1618Z"/>
  <path class="cls-3" d="M63.819,19.3321c-7.1172-.0129-12.8974,5.7463-12.9103,12.8635-.0129,7.1172,5.7463,12.8974,12.8635,12.9103,7.1172.0129,12.8974-5.7463,12.9103-12.8635,0-.0011,0-.0022,0-.0033v-.0201c.0019-7.1089-5.7546-12.8759-12.8635-12.8869ZM57.0726,36.2113c-1.3988,0-1.3988-2.1584,0-2.1584s1.3921,2.1584,0,2.1584Z"/>
  <path class="cls-7" d="M67.8346,26.7477l1.5427-1.7502.4651-.5321c1.1493.5299,2.5118.2082,3.3029-.7797.9066-1.0686,1.2056-2.5258.7931-3.8651l-1.8338,2.1183-1.8941-.4852-.5522-2.0078,1.8572-2.1082c-1.2848-.379-2.6722.0341-3.5405,1.0541-.8723.9869-1.0845,2.3937-.5421,3.594l.0636-.0837-2.5834,2.9515,2.9415,1.8941h-.0201Z"/>
  <path class="cls-6" d="M67.9819,26.8849l-.2711-.2677,2.0714-2.3759.1238.0535c1.0787.4853,2.3488.1846,3.0954-.7329.7914-.9209,1.1026-2.1609.8399-3.3464l-1.6966,1.961-2.0881-.5254-.6124-2.2287,1.6933-1.9476c-1.1371-.2169-2.3031.1947-3.0519,1.0775-.8302.9269-1.0338,2.2571-.5187,3.3899l-.0569.0301.1071.1004-.2711.3346-2.3425,2.6303-.2711-.2811,2.4328-2.7808c-.7379-1.8665.177-3.9779,2.0435-4.7158.7462-.295,1.5691-.3348,2.3403-.1131l.3045.087-2.0078,2.2889.4886,1.7669,1.6732.435,2.0078-2.2789.1071.3179c.4418,1.4094.127,2.9469-.8333,4.0692-.8155,1.004-2.1907,1.3584-3.3899.8734l-.3715.4283-1.5427,1.7502h-.0033Z"/>
  <path class="cls-7" d="M54.6967,36.0741l-3.845,4.0692-.0167.0201c-.6075.6378-.5836,1.6472.0535,2.2555.6283.6025,1.626.5816,2.2285-.0467,0,0,.0001-.0001.0002-.0002h0c.0146-.0011.0274-.0101.0335-.0234l3.8383-4.096-2.2923-2.1885v.01ZM52.1066,41.8834c-.2577.1119-.5573-.0063-.6691-.264,0-.0001,0-.0002-.0001-.0003v-.0234c-.0998-.2633.0256-.5585.2844-.6693.2453-.121.5423-.0203.6633.225.0021.0042.004.0084.006.0126l.0201.0502c.1076.2588-.0113.5561-.2677.6693h-.0368Z"/>
  <path class="cls-6" d="M51.9895,43.0446h0c-.4562.0042-.8954-.1727-1.2214-.4919-.7039-.6771-.7322-1.7945-.0636-2.5064h0l3.9889-4.2466,2.5433,2.4429-3.9487,4.2198c-.0268,0-.0301.0234-.0301.0234-.3249.3562-.7862.557-1.2683.5522v.0067ZM50.8651,40.4177l.097-.1272,3.7312-3.9822,2.0346,1.9777-3.7111,3.9353c-.0106.0049-.0228.0049-.0335,0-.2544.2876-.62.4521-1.0039.4518-.3626.0036-.7118-.1373-.9705-.3915-.5226-.4963-.5889-1.306-.1539-1.8807l.01.0167ZM51.9092,42.1143c-.3911-.0127-.6987-.3384-.6894-.7295.0031-.0836.0201-.1662.0502-.2443.0771-.1709.214-.3077.3848-.3848.0795-.0377.1664-.0572.2543-.0569.2926-.0066.5556.1778.6492.4551.1455.3558-.0234.7623-.3781.9102-.0865.033-.1784.0501-.271.0502h0ZM51.9092,41.0602c-.0435.0021-.0865.0112-.1272.0268-.0844.0353-.1525.101-.1907.1841-.0268.0872-.0268.1805,0,.2677.0739.1721.2679.2581.4451.1974.1848-.0351.3062-.2134.2711-.3982s-.2134-.3062-.3982-.2711v-.0067Z"/>
  <path class="cls-4" d="M76.1136,24.8536l-28.8425,11.1334.9537,2.5332,7.8975-3.0452c-.1006-.564.275-1.1028.839-1.2035.0787-.014.1587-.0189.2385-.0146.3499-.0023.6757.1777.86.4752l19.0309-7.342,1.8439-2.1885-2.811-.3581-.01.01Z"/>
  <path class="cls-3" d="M67.751,27.012l-4.5176-2.7139-3.855,1.7602-2.9047,1.3586-3.5405,5.9599,2.3726,2.4663,2.9214,3.0117,10.6281-8.4095c.0736-2.7139-1.1043-3.43-1.1043-3.43v-.0033ZM57.0726,36.2113c-1.3988,0-1.3988-2.1618,0-2.1618s1.3921,2.1618,0,2.1618Z"/>
  <polygon class="cls-3" points="77.8035 25.0176 78.1917 25.9111 78.7974 25.108 77.8035 25.0176 77.8035 25.0176"/>
  <path class="cls-6" d="M76.0534,24.6528l-29.0299,11.3576,1.2047,2.7842,7.6565-2.9114c-.0535-.1372-.3714-.2309-.3714-.3648l-7.0274,2.744-.8801-2.0346,28.5213-11.1535,2.3726.2443-1.5059,1.7836-19.1112,7.4591c.1037.1071.2342.1506.2878.2878l19.0744-7.429,2.0748-2.4663-3.2828-.3346.0167.0335Z"/>
  <polygon class="cls-2" points="77.9474 25.2585 76.1136 25.0778 76.9937 27.1024 78.1616 25.717 77.9474 25.2585 77.9474 25.2585"/>
  <polygon class="cls-5" points="76.1136 25.0778 76.9937 27.1024 76.1136 25.0778 76.1136 25.0778"/>
  <polygon class="cls-6" points="76.7829 27.1928 75.9028 25.1615 76.3344 24.9942 77.1978 27.0187 76.7829 27.1928 76.7829 27.1928"/>
  <path class="cls-3" d="M82.8532,56.8685c-.1144-.1601-.2985-.2559-.4953-.2577h-36.2146c-.1791.0013-.3484.0822-.4618.2209l-3.6141,4.28c-.1556.1877-.1894.4481-.087.6693.1061.2068.3197.3363.5522.3346h42.8505c.2234-.0091.4249-.1367.5287-.3346.102-.1972.0852-.4349-.0435-.6157l-3.0117-4.2968h-.0033ZM81.6987,57.3705l.3346.5923h-1.4155l-.2945-.5923h1.3754ZM66.3789,57.3705h1.4557l.0268.5923h-1.5059l.0234-.5923ZM66.3187,58.9433h1.5828l.0234.5923h-1.6197v-.6024l.0134.01ZM63.6081,57.3705h1.459l-.0368.5923h-1.5193l.0803-.5923h.0167ZM63.3906,58.9433h1.5795l-.0402.5923h-1.6565l.0904-.5923h.0268ZM60.8373,57.3705h1.4189l-.1004.5923h-1.4891l.1506-.5923h.0201ZM60.4391,58.9332h1.5728l-.1004.5923h-1.6197l.1472-.5923ZM58.0665,57.3604h1.4389l-.174.5923h-1.4824l.2041-.5923h.0134ZM57.511,58.9332h1.5494l-.1941.5923h-1.5962l.2175-.5923h.0234ZM55.3024,57.3604h1.4088l-.2342.5923h-1.4557l.2811-.5923ZM54.5628,58.9332h1.5326l-.2242.5923h-1.5762l.2677-.5923ZM52.5282,57.3604h1.3821l-.2978.5923h-1.4222l.3346-.5923h.0033ZM49.7641,57.3604h1.3586l-.3949.5923h-1.3887l.4016-.5923h.0234ZM47.0034,57.3604h1.3051l-.4216.5923h-1.3386l.4685-.5923h-.0134ZM45.6983,61.0415h-1.5996l.4718-.5923h1.5494l-.4216.5923ZM46.7758,59.5255h-1.5059l.4785-.5923h1.4356l-.4317.6024.0234-.01ZM48.9008,61.0415h-1.6732l.4016-.5923h1.5929l-.3547.5923h.0335ZM49.8143,59.5255h-1.5226l.3949-.5923h1.4758l-.3346.5923h-.0134ZM52.0899,61.0415h-1.7l.3346-.5923h1.623l-.2978.5923h.0402ZM52.8361,59.5255h-1.5527l.3346-.5923h1.4925l-.2911.5923h.0167ZM53.579,61.0415l.2778-.5923h14.1385l.0201.5923h-14.4363ZM69.1799,57.3604l.0435.5923h1.5025l-.0904-.5923h-1.4557ZM69.2936,58.9332h2.9582l-.2744-1.5728h1.4356l.5689,2.1651h-4.6648l-.0435-.5923h.0201ZM69.4409,61.0415l-.0435-.5923h1.6933l.0937.5923h-1.7435ZM72.6233,61.0415l-.1071-.5923h1.6966l.164.5923h-1.7535ZM74.7583,57.3604h1.4021l.2041.5923h-1.4791l-.1606-.5923h.0335ZM75.1967,58.9332h1.5561l.2075.5923h-1.5996l-.164-.5923ZM75.7923,61.0415l-.164-.5923h1.6732l.2075.5923h-1.7167ZM77.5057,57.3604h1.4021l.2778.5923h-1.449l-.2309-.5923ZM78.1281,58.9332h1.5193l.2878.5923h-1.5828l-.2242-.5923ZM78.9513,61.0415l-.2309-.5923h1.6498l.2811.5923h-1.7ZM81.0897,58.9332h1.5025l.3346.5923h-1.5393l-.2844-.5923h-.0134ZM82.1471,61.0415l-.2978-.5923h1.6197l.3346.5923h-1.6565Z"/>
  <path class="cls-3" d="M55.9985,54.7268c-.5789.5756.3346.9035.3346.9035h15.0822s.9136-.3346.3346-.9035c-.5789-.5689-2.1584-1.0039-2.319-3.4936v-1.9844h-11.11v1.9878c-.164,2.4897-1.7535,2.908-2.3224,3.4903Z"/>
  <path class="cls-3" d="M81.9497,49.3023h-36.0038c-1.3946-.0074-2.5202-1.142-2.5165-2.5366h0v-30.5191c.0129-1.3801,1.1363-2.4916,2.5165-2.4897h36.0038c1.3898-.0037,2.5195,1.12,2.5232,2.5098h0v30.5258c.0019,1.3964-1.1267,2.531-2.5232,2.5366h0v-.0268ZM45.9459,14.9651c-.7124.0036-1.2896.5793-1.2951,1.2917v30.5191c-.0037.7134.5716,1.2947,1.285,1.2984h36.0139c.7134.0037,1.2947-.5716,1.2984-1.285,0-.0022,0-.0045,0-.0067v-30.5257c-.0073-.7129-.5854-1.2881-1.2984-1.2917h-36.0038Z"/>
  <path class="cls-3" d="M81.9497,49.3023h-36.0038c-1.3946-.0074-2.5202-1.142-2.5165-2.5366h0v-30.5191c.0129-1.3801,1.1363-2.4916,2.5165-2.4897h36.0038c1.3898-.0037,2.5195,1.12,2.5232,2.5098h0v30.5258c.0019,1.3964-1.1267,2.531-2.5232,2.5366h0v-.0268ZM45.9459,14.9651c-.7124.0036-1.2896.5793-1.2951,1.2917v30.5191c-.0037.7134.5716,1.2947,1.285,1.2984h36.0139c.7134.0037,1.2947-.5716,1.2984-1.285,0-.0022,0-.0045,0-.0067v-30.5257c-.0073-.7129-.5854-1.2881-1.2984-1.2917h-36.0038Z"/>
  <polygon class="cls-2" points="56.8317 32.0986 56.9388 32.2491 56.8317 32.0986 56.8317 32.0986"/>
  <path class="cls-2" d="M75.3105,48.0073c.1405-.1372-.2543-.1506-.1171-.2978-.1138-.1372-5.2003.3112-5.2739.2276-1.807-1.8204,1.121,1.1478-.6693-.6693-1.9677-2.0078-3.9253-3.9922-5.9097-5.99-.198-.1345-.4193-.231-.6525-.2844-.6231-.1263-1.2344-.3054-1.8271-.5354-.4841-.3139-.9261-.6883-1.3151-1.1143-.5287-.4852-1.0039-1.0039-1.5393-1.4724.6693-.6693,1.5226-1.1244,1.6933-2.1283,0-.0736.1205-.1104.1807-.164.2945-.2209.5923-.4317.8768-.6693.4518-.4016.8098-.8466.7094-1.5159,0-.077.0904-.1874.1573-.2677.4953-.5087.9838-1.0039,1.459-1.5092l1.0039-.1606c-.034.2095-.0935.4141-.1774.609-.2671.49-.2414,1.0875.0669,1.5527.4953.9504,1.0641,1.8506,1.6263,2.7574.087.1573.3346.2175.5153.3346-.0201-.1874.0402-.4216-.0435-.5756-.4384-.7897-.9136-1.5427-1.3586-2.3425-.261-.4317-.5789-.8667-.3681-1.4222.2108-.5555.4986-1.198.7831-1.7903.5087-1.0675.522-1.0675-.3915-1.8673-.0347-.0369-.0728-.0705-.1138-.1004-.2989-.3268-.7883-.3943-1.1645-.1606-.3781.1974-.7964.3815-1.1846.5823-.4243.2551-.9713.1628-1.2884-.2175-.1907-.1673-.3781-.3346-.5655-.522-.3346-.2978-.2744-.5789.0368-.8567.8801-.7262,1.7468-1.4456,2.6269-2.1618.3078-.2912.7832-.3112,1.1143-.0468,1.121.7563,2.2387,1.4824,3.3464,2.2053.4294.2504.7083.6957.7462,1.1913.1707,1.4824.2778,2.9682.5388,4.434.2532,1.3119-.0658,2.6694-.8768,3.7312-.1406.2352-.2995.459-.4752.6693-.2844.2945-.1874.5153.077.7596,1.0608.947,2.0915,1.9074,3.1356,2.8478,1.5226,1.4021,3.0519,2.7875,4.5912,4.1796.1305.1171.2811.2276.4116.3346-.1074-.257-.2723-.4859-.4819-.6693-2.1049-2.0748-4.2265-4.1328-6.3581-6.1975-.2978-.2811-.7864-.5756-.8333-.9102-.0468-.3346.3614-.7228.5522-1.0876s.3648-.7094.5588-1.0842c.0715-.116.1497-.2278.2342-.3346,4.0157,3.6342,9.2193,8.1384,13.255,11.7525l-7.3118.9571Z"/>
  <path class="cls-2" d="M57.5378,33.3869c.5153.4986,1.0039,1.0039,1.546,1.4791.3781.3346.5789.3346.9236-.0468.2276-.2476.4551-.5053.7061-.7295.241-.1681.3001-.4998.132-.7408-.0005-.0007-.001-.0014-.0015-.0021-.034-.0512-.0785-.0945-.1305-.1272-1.0508-1.0407-2.1116-2.0346-3.1858-3.0519-.2024-.2281-.5514-.2488-.7795-.0464-.0023.0021-.0046.0041-.0069.0062-.0244.0203-.0458.044-.0636.0703-.2543.2543-.4886.522-.7396.773-.2491.1854-.3007.5376-.1153.7867.0016.0022.0032.0043.0049.0064.0347.0475.0778.0884.1272.1205.5287.4886,1.0508,1.0039,1.5728,1.5126l.01-.01Z"/>
  <path class="cls-2" d="M59.0972,30.9507c.5187.4986,1.0608,1.0039,1.5695,1.5126.1815.2507.5315.3076.7831.1272.055-.0406.1026-.0904.1405-.1472.2342-.2376.4785-.4886.7027-.7228.2516-.2001.2963-.565.1004-.8199-.0262-.0306-.0541-.0597-.0837-.087-1.0039-1.0039-2.0881-2.0346-3.1456-3.0519-.2163-.2475-.5922-.2729-.8399-.0569-.0387.0329-.0725.0713-.1004.1138-.2443.2644-.4919.5087-.7362.773-.2245.1725-.2678.4937-.097.7195.0343.0437.0749.082.1205.1138.5388.4953,1.0541,1.0039,1.5862,1.5126v.0134Z"/>
  <path class="cls-2" d="M57.5947,34.17c-.0443-.0639-.0936-.1244-.1472-.1807h0c-.4016-.4183-.8232-.8199-1.2382-1.2114-.5053-.4752-.7429-.4718-1.2214.0335-.1807.1907-.3346.3915-.5287.5588-.2581.1741-.3269.5242-.1539.7831.0378.054.0841.1015.1372.1405.927.9069,1.8673,1.8137,2.831,2.7139.1813.2141.5017.2411.7161.0602.029-.0234.0548-.0504.077-.0803.2744-.2677.5087-.5321.7797-.7964.3346-.3346.2476-.6157-.0569-.9136s-.5588-.5321-.8399-.8031l-.3346-.3346-.0201.0301Z"/>
  <path class="cls-2" d="M61.9182,29.7527c.4216.4049.7998.7663,1.1813,1.1143.1474.2059.4338.2532.6397.1058.0009-.0007.0019-.0014.0028-.0021.0394-.0294.0744-.0643.1037-.1037.2871-.2893.5501-.6016.7864-.9336.1322-.1998.1475-.4551.0402-.6693-.1774-.2644-.3815-.6325-.8399-.425-.6224.2978-1.2482.5856-1.9275.9002l.0134.0134Z"/>
  <path class="cls-2" d="M59.6059,27.5508c.6057-.5187,1.1645-1.0039,1.7167-1.4858-.0089-.0463-.0235-.0912-.0435-.1339-.2175.0468-.522,0-.6325.1372-.3714.4417-1.0407.7128-1.0407,1.4824Z"/>
</svg>